<svg xmlns="http://www.w3.org/2000/svg" viewBox="0 0 1600 1200"><path d="m417.53 290.92 764.94 3.23c25.84 0 32.93 2.71 32.93 28.55l13.85 37.61v564.8c0 25.84-20.94 46.78-46.78 46.78H417.53c-25.84 0-46.78-20.94-46.78-46.78v-564.8l12.6-37.61c0-25.84 8.34-31.78 34.18-31.78Z" fill="#fff"/><path d="M417.53 275.92h764.94c25.84 0 46.78 20.94 46.78 46.78v37.61h-858.5V322.7c0-25.84 20.94-46.78 46.78-46.78Z" fill="#d5d5d5"/><path d="M436.7 333.74c8.05 0 14.58-6.53 14.58-14.58 0-8.06-6.53-14.59-14.58-14.59-8.06 0-14.59 6.53-14.59 14.59 0 8.05 6.53 14.58 14.59 14.58ZM484.1 333.74c8.06 0 14.59-6.53 14.59-14.58 0-8.06-6.53-14.59-14.59-14.59-8.05 0-14.58 6.53-14.58 14.59 0 8.05 6.53 14.58 14.58 14.58ZM531.51 333.74c8.05 0 14.59-6.53 14.59-14.58 0-8.06-6.54-14.59-14.59-14.59s-14.59 6.53-14.59 14.59c0 8.05 6.54 14.58 14.59 14.58Z" fill="#fff"/><path d="M692.27 318.84h215.56" stroke="#fff" stroke-width="4" stroke-linecap="round" stroke-linejoin="round" fill="none"/><path d="M642.43 493.46h301.18c22.45 0 40.62 18.17 40.62 40.62V807.9c0 22.45-18.17 40.62-40.62 40.62H642.43c-22.45 0-40.62-18.17-40.62-40.62V534.08c.07-22.45 18.24-40.62 40.62-40.62Z" opacity=".3"/><path d="M656.46 479.43h301.18c22.45 0 40.62 18.17 40.62 40.62v273.82c0 22.45-18.17 40.62-40.62 40.62H656.46c-22.45 0-40.62-18.17-40.62-40.62V520.05c.07-22.45 18.24-40.62 40.62-40.62Z" fill="#ffc930"/><path d="M746.4 749.53h195.04c13.96 0 25.25 11.29 25.25 25.25s-11.29 25.26-25.25 25.26h-220.3v-25.26c0-13.96 11.3-25.25 25.26-25.25Z" fill="#3c2c5b"/><path d="M672.74 749.53c13.96 0 25.25 11.29 25.25 25.25s-11.29 25.26-25.25 25.26-25.26-11.3-25.26-25.26 11.3-25.25 25.26-25.25Z" fill="#fff"/><path d="M672.74 511h268.7c13.96 0 25.25 11.29 25.25 25.25v161.36c0 13.96-11.29 25.26-25.25 25.26h-268.7c-13.96 0-25.26-11.3-25.26-25.26V536.25c0-13.96 11.3-25.25 25.26-25.25Z" fill="#61ccff"/><path d="M683.26 687.79H927.4" stroke="#0b4f6f" stroke-width="4" stroke-linecap="round" stroke-linejoin="round" fill="none"/><path d="M734.12 702.52c7.95 0 14.39-6.44 14.39-14.38s-6.44-14.38-14.39-14.38c-7.94 0-14.38 6.44-14.38 14.38s6.44 14.38 14.38 14.38ZM829.96 593.15l-37.12-24.56c-2.87-1.89-6.73-1.12-8.63 1.76a6.178 6.178 0 0 0-1.05 3.44v49.03c0 3.44 2.81 6.25 6.25 6.25 1.19 0 2.45-.35 3.43-1.05l37.12-24.56c2.87-1.89 3.57-5.82 1.68-8.63-.49-.7-1.05-1.26-1.68-1.68Z" fill="#fff"/><path d="m1122.13 971.66-28.84-113.25h163.02l-28.84 113.02-105.34.23Z" fill="#3c2c5b"/><path d="m1097.48 874.92-4.19-16.51h163.02l-14.65 57.67-144.18-41.16Z" opacity=".2"/><path d="M1090.27 858.64c-14.42 0-26.04-11.63-26.04-26.04 0-14.42 11.62-26.05 26.04-26.05h18.37c4.65-28.37 26.98-50.69 55.35-55.34 3.72-.7 7.21-.93 10.93-.93 32.79 0 60.69 23.72 66.04 56.27h18.14c14.42 0 25.81 11.4 26.04 26.05 0 14.41-11.62 26.04-26.04 26.04h-168.83Z" fill="#ffc930"/><path d="m1167.71 806.55 4.65-.23c39.3-8.61 50.93-34.88 51.16-35.12 9.3 9.54 15.35 21.86 17.67 35.12h-73.48v.23Z" fill="#d59d00" opacity=".2"/><path d="M1173.29 768.41c15.42 0 27.9-12.48 27.9-27.9 0-15.42-12.48-27.91-27.9-27.91-15.42 0-27.91 12.49-27.91 27.91s12.49 27.9 27.91 27.9Z" fill="#61ccff"/><path d="M1108.64 806.55h45.35" stroke="#786f54" stroke-width="4" stroke-linecap="round" stroke-linejoin="round" fill="none"/><path d="m1143.76 859.11 12.79 108.83M1202.82 859.11l-12.56 109.06" stroke="#000" stroke-width="4" stroke-linecap="round" stroke-linejoin="round" fill="none"/><path d="m453.67 552.36 27.8-27.8 49.23 49.23c7.69 7.68 7.69 20.11 0 27.8-7.69 7.69-20.11 7.69-27.8 0l-49.23-49.23Z" fill="#ffc930"/><path d="M530.7 586.39c-7.69 7.69-20.11 7.69-27.8 0l-41.6-41.59-7.63 7.58 49.23 49.23c7.69 7.69 20.11 7.69 27.8 0 5.85-5.85 7.22-14.38 4.21-21.54-.94 2.32-2.37 4.43-4.21 6.32Z" opacity=".2"/><path d="m452.16 510.48-12.62 12.62 21.7 21.71 12.62-12.63-21.7-21.7Z" fill="#ffc930"/><path d="M462.78 540.83c-8.11-7.27-10.85-18.22-7.58-27.33l-3.06-3.05-12.63 12.64 21.69 21.69 2.84-2.84c-.37-.37-.84-.74-1.26-1.11Z" opacity=".2"/><path d="M445.88 398.13c31.27 30.23 34.33 79.3 7.05 113.16a83.768 83.768 0 0 1-4.89 5.53 80.556 80.556 0 0 1-7.64 7c-36.01 29.17-88.88 23.53-118.05-12.48-29.17-36.02-23.54-88.88 12.48-118.05 32.96-26.64 80.56-24.54 111.05 4.84Z" fill="#ffc930"/><path d="M387.59 517.5c32.54 0 58.92-26.38 58.92-58.92 0-32.54-26.38-58.92-58.92-58.92-32.54 0-58.92 26.38-58.92 58.92 0 32.54 26.38 58.92 58.92 58.92Z" fill="#eee"/><path d="M481.43 524.5c7.48 7.85 7.16 20.27-.68 27.75-7.58 7.21-19.54 7.27-27.12.05l27.8-27.8Z" fill="#61ccff"/><path d="M415.86 467.69c4.95 0 8.95-4.01 8.95-8.95 0-4.95-4-8.95-8.95-8.95-4.94 0-8.95 4-8.95 8.95 0 4.94 4.01 8.95 8.95 8.95ZM387.9 467.69c4.95 0 8.96-4.01 8.96-8.95 0-4.95-4.01-8.95-8.96-8.95-4.94 0-8.95 4-8.95 8.95 0 4.94 4.01 8.95 8.95 8.95ZM367.88 462.89c2.29-4.38.6-9.79-3.78-12.08-4.38-2.3-9.79-.61-12.08 3.77-2.3 4.38-.61 9.79 3.77 12.08 4.38 2.3 9.79.61 12.09-3.77Z" fill="#fff"/><path d="m482.15 580 27.23-27.28M490.74 588.58l27.27-27.27M499.32 597.16l27.27-27.27M453.04 511.34a81.459 81.459 0 0 1-4.9 5.53c-2.42 2.47-4.95 4.84-7.63 7" stroke="#000" stroke-width="4" stroke-linecap="round" stroke-linejoin="round" fill="none"/><g stroke="#231f20" stroke-width="4" stroke-linecap="round" stroke-linejoin="round" fill="none"><path d="m409.88 859.01-179.25 80.21M498.04 893.43l-39.71 127.99"/></g><path d="m1085.6 364.64 60.47 65.04 34.48-181.37 143.78 140.43-36.92-159.36 160.93 2.85" stroke="#231f20" stroke-width="4" stroke-linecap="round" stroke-linejoin="round" fill="none"/><path d="m279.85 737.47-28.22-25.89 14.69 38.7-37.57 1.74 33.27 17.38-25.25 29.02 36.99-15.76 8.24 38.6 11.96-38.51 31.93 15.81-17.82-32.61 30.9-7.57-30.14-7.34 22.66-27.5-32.2 14.51-8.6-44.16-10.84 43.58Z" fill="#3c2c5b"/><path d="m1289.99 492.29-44.44 26.5 54.69-6.27-6.8 45.19 27.77-38.29 35.57 34.83-15.71-46.51 49.85-13.8-50.54-10.88 26.12-47.84-43.7 36.26-24.85-51.61 2.13 55.43-47.79-15.39 37.7 32.38Z" fill="#61ccff"/><path d="m604.23 201.95 20.33-12.12-25.02 2.87 3.11-20.68-12.71 17.52-16.27-15.94 7.19 21.28-22.81 6.32 23.12 4.98-11.95 21.89 20-16.59 11.36 23.61-.97-25.36 21.87 7.04-17.25-14.82Z" fill="#fff"/></svg>
