<svg viewBox="0 0 600 450" fill="none" xmlns="http://www.w3.org/2000/svg"><g clip-path="url(#a)"><path d="M509 146.847H92.088v1.091H509v-1.091ZM121.542 138.274H97.44c-3.1 0-5.624-2.531-5.624-5.64 0-3.109 2.524-5.634 5.624-5.634h24.108c3.1 0 5.624 2.531 5.624 5.64 0 3.108-2.524 5.639-5.624 5.639l-.006-.005ZM509 191.936H92.088v1.091H509v-1.091ZM121.542 183.362H97.44c-3.1 0-5.624-2.53-5.624-5.639 0-3.109 2.524-5.64 5.624-5.64h24.108c3.1 0 5.624 2.531 5.624 5.64 0 3.109-2.524 5.639-5.624 5.639h-.006ZM509 237.02H92.088v1.09H509v-1.09ZM121.542 228.451H97.44c-3.1 0-5.624-2.53-5.624-5.639 0-3.109 2.524-5.64 5.624-5.64h24.108c3.1 0 5.624 2.531 5.624 5.64 0 3.109-2.524 5.639-5.624 5.639h-.006Z" fill="#DEDFE0"/><path d="M241.127 148.484H92.087A1.093 1.093 0 0 1 91 147.393c0-.6.49-1.091 1.088-1.091h149.039c.598 0 1.088.491 1.088 1.091s-.49 1.091-1.088 1.091ZM318.937 193.573H92.087A1.093 1.093 0 0 1 91 192.482c0-.6.49-1.091 1.088-1.091h226.849c.599 0 1.088.491 1.088 1.091s-.489 1.091-1.088 1.091ZM166.607 238.656h-74.52A1.093 1.093 0 0 1 91 237.565c0-.6.49-1.091 1.088-1.091h74.519c.599 0 1.088.491 1.088 1.091s-.489 1.091-1.088 1.091Z" fill="#6C63FF"/><path d="m404.885 216.807-9.002 3.076-.147-13.041 8.197-.092.952 10.057Z" fill="#F3A3A6"/><path d="M396.796 210.442c4.975 0 9.008-4.044 9.008-9.032s-4.033-9.032-9.008-9.032c-4.974 0-9.007 4.044-9.007 9.032s4.033 9.032 9.007 9.032Z" fill="#F3A3A6"/><path d="M399.255 200.488c-1.507-.027-2.513-1.543-3.117-2.934-.603-1.391-1.224-2.983-2.621-3.545-1.148-.458-3.128 2.743-4.042 1.909-.952-.873-.081-5.422.908-6.245.99-.824 2.356-.998 3.639-1.075 3.139-.18 6.294.038 9.378.649 1.904.377 3.873.955 5.26 2.318 1.757 1.729 2.23 4.364 2.382 6.829.158 2.52.038 5.165-1.158 7.39-1.202 2.22-3.743 3.878-6.207 3.343-.261-1.336-.027-2.71.055-4.074.081-1.358-.038-2.825-.876-3.899-.838-1.075-2.611-1.484-3.563-.513" fill="#2F2E43"/><path d="M410.368 203.493c.892-.67 1.963-1.238 3.073-1.112 1.202.131 2.225 1.112 2.546 2.28.321 1.167-.011 2.459-.74 3.425-.729.965-1.822 1.609-2.986 1.936-.675.191-1.409.273-2.056 0-.952-.398-1.475-1.604-1.116-2.574" fill="#2F2E43"/><path d="M376.856 288.822c-.566 2.973.56 5.673 2.524 6.027 1.958.355 4.008-1.772 4.574-4.745a7.293 7.293 0 0 0-.158-3.572l6.93-46.584-9.334-1.652-3.073 47.249a7.392 7.392 0 0 0-1.463 3.283v-.006Z" fill="#F3A3A6"/><path d="m395.72 213.9-6.359.071c-4.488.731-5.684 3.152-6.653 7.603-1.484 6.79-3.377 15.838-2.98 15.964.636.207 11.515 5.192 17.02 3.959L395.72 213.9Z" fill="#6C63FF"/><path d="m403.523 361.931-8.463.095.134 12.036 8.463-.095-.134-12.036Z" fill="#F3A3A6"/><path d="M387.011 381.465c-.892.011-1.681 0-2.279-.049-2.252-.18-4.411-1.821-5.505-2.781a1.54 1.54 0 0 1 .571-2.624l5.924-1.767 9.546-6.616.109.191c.043.071 1.006 1.767 1.332 2.918.126.437.098.802-.081 1.086-.125.196-.299.31-.441.381.174.18.724.546 2.41.797 2.453.365 2.948-2.193 2.964-2.302l.017-.087.07-.049c1.159-.769 1.872-1.118 2.122-1.047.158.043.413.12 1.186 7.057.07.218.576 1.811.261 3.343-.343 1.669-7.594 1.173-9.041 1.059-.043.005-5.461.452-9.176.49h.011Z" fill="#2F2E43"/><path d="m427.498 352.194-7.131 4.571 6.466 10.142 7.131-4.571-6.466-10.142Z" fill="#F3A3A6"/><path d="M418.26 379.464a14.854 14.854 0 0 1-2.562-.207 1.534 1.534 0 0 1-1.256-1.255 1.527 1.527 0 0 1 .359-1.276l4.09-4.642 4.607-10.679.196.104c.071.038 1.784.965 2.671 1.767.337.306.506.627.506.966 0 .234-.087.425-.174.556.245.06.903.076 2.464-.606 2.273-.992 1.343-3.425 1.3-3.523l-.033-.082.038-.076c.577-1.265 1.001-1.942 1.246-2.018.158-.044.413-.12 4.732 5.356.174.147 1.447 1.227 1.986 2.694.587 1.598-5.821 5.023-7.115 5.694-.038.033-6.734 5.023-9.486 6.452-1.094.568-2.394.753-3.58.764l.011.011ZM408.622 261.198l-23.694.261-1.904 22.122 10.313 81.56 12.097-.136-5.358-47.112 20.093 42.367 10.667-7.668-15.763-39.586s5.091-34.694.696-43.273c-4.395-8.579-7.142-8.546-7.142-8.546v.011h-.005Z" fill="#2F2E43"/><path d="m420.425 262.414-37.635.42 10.754-48.907 16.394-.185 10.487 48.672Z" fill="#6C63FF"/><path d="M424.097 288.299c.631 2.961-.435 5.683-2.388 6.081-1.953.398-4.047-1.68-4.678-4.641a7.31 7.31 0 0 1 .076-3.578l-7.963-46.42 9.296-1.86 4.117 47.173a7.487 7.487 0 0 1 1.54 3.25v-.005Z" fill="#F3A3A6"/><path d="m403.579 213.812 6.359-.07c4.504.632 5.749 3.027 6.821 7.455 1.632 6.758 3.726 15.757 3.334 15.893-.636.219-11.395 5.444-16.927 4.336l.419-27.614h-.006Z" fill="#6C63FF"/><path d="M460.997 381.466a.534.534 0 0 1-.533.534H344.54a.535.535 0 0 1 0-1.069h115.924c.294 0 .533.24.533.535Z" fill="#3F3D58"/></g><path d="M120.512 75.32c-1.621 0-3.104-.277-4.448-.832a10.115 10.115 0 0 1-3.488-2.368c-.981-1.045-1.749-2.272-2.304-3.68-.533-1.43-.8-2.987-.8-4.672 0-1.621.288-3.125.864-4.512a11.416 11.416 0 0 1 2.4-3.648 10.894 10.894 0 0 1 3.584-2.432c1.365-.576 2.848-.864 4.448-.864 1.088 0 2.144.16 3.168.48 1.024.32 1.963.768 2.816 1.344a8.59 8.59 0 0 1 2.144 1.952L126.24 59a9.695 9.695 0 0 0-1.728-1.44 6.307 6.307 0 0 0-1.824-.896 5.853 5.853 0 0 0-1.92-.32c-.981 0-1.909.181-2.784.544-.853.363-1.6.875-2.24 1.536a7.413 7.413 0 0 0-1.472 2.368c-.363.896-.544 1.899-.544 3.008 0 1.13.171 2.155.512 3.072a7.136 7.136 0 0 0 1.504 2.368 6.952 6.952 0 0 0 2.336 1.536c.917.341 1.92.512 3.008.512.704 0 1.387-.096 2.048-.288a7.407 7.407 0 0 0 1.824-.8 8.95 8.95 0 0 0 1.568-1.248l2.048 3.296c-.512.576-1.195 1.099-2.048 1.568-.853.47-1.813.843-2.88 1.12a13.141 13.141 0 0 1-3.136.384Zm11.699-.32V51.32h3.968V75h-3.968Zm15.993.32c-1.686 0-3.19-.373-4.512-1.12a8.503 8.503 0 0 1-3.136-3.136c-.768-1.323-1.152-2.827-1.152-4.512 0-1.685.384-3.19 1.152-4.512a8.264 8.264 0 0 1 3.136-3.104c1.322-.768 2.826-1.152 4.512-1.152 1.664 0 3.157.384 4.48 1.152a8.045 8.045 0 0 1 3.104 3.104c.768 1.323 1.152 2.827 1.152 4.512 0 1.685-.384 3.19-1.152 4.512a8.273 8.273 0 0 1-3.104 3.136c-1.323.747-2.816 1.12-4.48 1.12Zm0-3.488c.917 0 1.728-.235 2.432-.704a4.843 4.843 0 0 0 1.696-1.888c.426-.79.629-1.685.608-2.688.021-1.024-.182-1.93-.608-2.72a4.611 4.611 0 0 0-1.696-1.856c-.704-.47-1.515-.704-2.432-.704-.918 0-1.75.235-2.496.704-.726.448-1.291 1.077-1.696 1.888-.406.79-.608 1.685-.608 2.688 0 1.003.202 1.899.608 2.688.405.79.97 1.419 1.696 1.888.746.47 1.578.704 2.496.704Zm18.112 3.488c-1.216 0-2.272-.267-3.168-.8-.896-.555-1.578-1.333-2.048-2.336-.469-1.024-.704-2.24-.704-3.648v-10.4h3.936v9.568c0 .896.139 1.664.416 2.304.278.619.683 1.099 1.216 1.44.534.341 1.174.512 1.92.512.555 0 1.056-.085 1.504-.256.47-.192.875-.448 1.216-.768.342-.341.608-.736.8-1.184.192-.47.288-.97.288-1.504V58.136h3.936V75h-3.84l-.064-3.52.704-.384a5.468 5.468 0 0 1-1.312 2.176 7.049 7.049 0 0 1-2.144 1.504 6.573 6.573 0 0 1-2.656.544Zm20.71 0c-1.494 0-2.838-.373-4.032-1.12-1.174-.768-2.112-1.803-2.816-3.104-.683-1.323-1.024-2.837-1.024-4.544 0-1.685.341-3.19 1.024-4.512.682-1.323 1.61-2.357 2.784-3.104 1.194-.768 2.538-1.152 4.032-1.152.81 0 1.589.128 2.336.384.768.256 1.45.608 2.048 1.056.597.427 1.066.907 1.408 1.44.362.533.565 1.088.608 1.664l-1.056.128V51.32h3.936V75h-3.808l-.096-3.968.768.064c-.022.533-.214 1.045-.576 1.536-.342.49-.79.939-1.344 1.344a7.309 7.309 0 0 1-1.952.992 7.234 7.234 0 0 1-2.24.352Zm.768-3.328c.917 0 1.728-.235 2.432-.704.704-.47 1.248-1.11 1.632-1.92.405-.81.608-1.75.608-2.816 0-1.045-.203-1.973-.608-2.784-.384-.832-.928-1.472-1.632-1.92-.704-.47-1.515-.704-2.432-.704-.918 0-1.728.235-2.432.704-.704.448-1.259 1.088-1.664 1.92-.384.81-.576 1.739-.576 2.784 0 1.067.192 2.005.576 2.816.405.81.96 1.45 1.664 1.92s1.514.704 2.432.704ZM202.278 75V56.632c0-1.024.224-1.93.672-2.72a4.783 4.783 0 0 1 1.856-1.888c.789-.47 1.706-.704 2.752-.704.725 0 1.397.128 2.016.384a4.388 4.388 0 0 1 1.568.992l-1.216 2.976a3.262 3.262 0 0 0-.896-.544 2.192 2.192 0 0 0-.864-.192c-.427 0-.79.075-1.088.224-.278.128-.491.33-.64.608-.128.277-.192.608-.192.992V75h-3.968Zm-2.624-13.056v-3.456h10.4v3.456h-10.4ZM213.35 75V51.32h3.968V75h-3.968Zm14.666.32a6.569 6.569 0 0 1-3.776-1.152c-1.131-.768-2.038-1.813-2.72-3.136-.683-1.323-1.024-2.827-1.024-4.512 0-1.685.341-3.19 1.024-4.512.682-1.323 1.61-2.357 2.784-3.104 1.173-.747 2.496-1.12 3.968-1.12.853 0 1.632.128 2.336.384a5.62 5.62 0 0 1 1.856 1.024c.533.448.97.96 1.312 1.536.362.576.608 1.195.736 1.856l-.864-.224v-4.224h3.968V75h-4v-4.032l.928-.16c-.15.576-.427 1.141-.832 1.696a6.315 6.315 0 0 1-1.472 1.44 8 8 0 0 1-1.952.992 6.6 6.6 0 0 1-2.272.384Zm1.088-3.488c.917 0 1.728-.224 2.432-.672a4.459 4.459 0 0 0 1.632-1.856c.405-.81.608-1.739.608-2.784 0-1.024-.203-1.93-.608-2.72a4.459 4.459 0 0 0-1.632-1.856c-.704-.448-1.515-.672-2.432-.672-.918 0-1.728.224-2.432.672-.683.448-1.216 1.067-1.6 1.856-.384.79-.576 1.696-.576 2.72 0 1.045.192 1.973.576 2.784.384.79.917 1.408 1.6 1.856.704.448 1.514.672 2.432.672ZM242.179 75V58.136h3.872l.064 5.376-.544-1.216a6.006 6.006 0 0 1 1.216-2.304 6.434 6.434 0 0 1 1.984-1.6 5.076 5.076 0 0 1 2.4-.608c.363 0 .704.032 1.024.096.341.064.619.139.832.224l-1.056 4.32a3.679 3.679 0 0 0-.864-.32 4.21 4.21 0 0 0-1.024-.128c-.533 0-1.045.107-1.536.32-.469.192-.885.47-1.248.832-.363.363-.651.79-.864 1.28-.192.47-.288 1.003-.288 1.6V75h-3.968Zm20.654.32c-1.771 0-3.339-.373-4.704-1.12-1.344-.747-2.4-1.76-3.168-3.04-.747-1.301-1.12-2.784-1.12-4.448 0-1.323.213-2.528.64-3.616.427-1.088 1.013-2.027 1.76-2.816a7.725 7.725 0 0 1 2.72-1.856c1.067-.448 2.229-.672 3.488-.672 1.109 0 2.144.213 3.104.64a7.677 7.677 0 0 1 2.496 1.76c.704.725 1.237 1.6 1.6 2.624.384 1.003.565 2.101.544 3.296l-.032 1.376h-13.664l-.736-2.688h11.104l-.512.544V64.6c-.064-.661-.277-1.237-.64-1.728a3.621 3.621 0 0 0-1.408-1.184 3.851 3.851 0 0 0-1.856-.448c-1.045 0-1.931.203-2.656.608-.704.405-1.237.992-1.6 1.76-.363.747-.544 1.685-.544 2.816 0 1.088.224 2.037.672 2.848.469.81 1.12 1.44 1.952 1.888.853.427 1.845.64 2.976.64a5.98 5.98 0 0 0 2.176-.384c.661-.256 1.376-.715 2.144-1.376l1.952 2.72a8.866 8.866 0 0 1-1.984 1.376c-.725.363-1.493.65-2.304.864a9.408 9.408 0 0 1-2.4.32Zm20.956-.32V52.6h9.728c1.344 0 2.571.32 3.68.96a6.87 6.87 0 0 1 2.624 2.56c.662 1.067.992 2.272.992 3.616 0 1.28-.33 2.464-.992 3.552a7.188 7.188 0 0 1-2.624 2.56c-1.088.619-2.314.928-3.68.928h-5.664V75h-4.064Zm12.992 0-5.696-10.112 4.288-.8 6.336 10.944-4.928-.032Zm-8.928-11.84h5.696c.619 0 1.152-.139 1.6-.416.47-.299.832-.704 1.088-1.216a3.739 3.739 0 0 0 .384-1.696c0-.704-.16-1.312-.48-1.824a3.38 3.38 0 0 0-1.344-1.216c-.576-.299-1.237-.448-1.984-.448h-4.96v6.816ZM305.686 75l-1.056-2.624 6.72-7.52c.384-.384.778-.821 1.184-1.312a27.17 27.17 0 0 0 1.152-1.568 10.61 10.61 0 0 0 .928-1.6c.234-.533.352-1.024.352-1.472 0-.576-.128-1.077-.384-1.504a2.422 2.422 0 0 0-1.024-.992c-.448-.235-1.003-.352-1.664-.352-.576 0-1.142.17-1.696.512-.534.32-1.035.79-1.504 1.408-.448.597-.822 1.312-1.12 2.144l-3.136-1.856c.384-1.237.96-2.304 1.728-3.2a8.197 8.197 0 0 1 2.752-2.112 8.165 8.165 0 0 1 3.456-.736c1.28 0 2.421.267 3.424.8a6.062 6.062 0 0 1 2.368 2.208c.597.939.896 2.037.896 3.296 0 .47-.054.96-.16 1.472a8.992 8.992 0 0 1-.512 1.568 11.736 11.736 0 0 1-.864 1.696c-.363.576-.8 1.184-1.312 1.824a31.731 31.731 0 0 1-1.696 2.016l-5.088 5.536-.64-1.472h11.072V75h-14.176Zm30.617 0-5.664-16.864 4.032-.032 3.776 12.032-.704-.064 4.096-9.408h2.368l4.192 9.408-.832.096 3.808-12.032h4.032L349.711 75h-2.816l-4.32-10.112.608.064L339.087 75h-2.784Zm22.449 0V58.136h3.936V75h-3.936Zm1.92-20.448c-.789 0-1.408-.192-1.856-.576-.427-.405-.64-.97-.64-1.696 0-.683.224-1.237.672-1.664.448-.427 1.056-.64 1.824-.64.811 0 1.429.203 1.856.608.448.384.672.95.672 1.696 0 .661-.224 1.205-.672 1.632-.448.427-1.067.64-1.856.64ZM369.503 75V53.848h3.936V75h-3.936Zm-3.328-13.216v-3.648h10.944v3.648h-10.944ZM380.117 75V51.32h3.904v10.272l-.736.384c.213-.768.629-1.461 1.248-2.08a7.055 7.055 0 0 1 2.208-1.536 6.331 6.331 0 0 1 2.624-.576c1.28 0 2.346.256 3.2.768.874.512 1.525 1.28 1.952 2.304.448 1.024.672 2.304.672 3.84V75h-3.936V64.984c0-.853-.118-1.557-.352-2.112-.235-.576-.598-.992-1.088-1.248-.491-.277-1.088-.405-1.792-.384a4.35 4.35 0 0 0-1.6.288c-.47.17-.886.427-1.248.768-.342.32-.619.693-.832 1.12a3.392 3.392 0 0 0-.288 1.408V75h-3.936Zm29.61 0V52.6h9.728c1.344 0 2.57.32 3.68.96a6.877 6.877 0 0 1 2.624 2.56c.661 1.067.992 2.272.992 3.616 0 1.28-.331 2.464-.992 3.552a7.196 7.196 0 0 1-2.624 2.56c-1.088.619-2.315.928-3.68.928h-5.664V75h-4.064Zm12.992 0-5.696-10.112 4.288-.8 6.336 10.944-4.928-.032Zm-8.928-11.84h5.696c.618 0 1.152-.139 1.6-.416a3.005 3.005 0 0 0 1.088-1.216 3.739 3.739 0 0 0 .384-1.696c0-.704-.16-1.312-.48-1.824a3.38 3.38 0 0 0-1.344-1.216c-.576-.299-1.238-.448-1.984-.448h-4.96v6.816Zm23.287 12.16a6.573 6.573 0 0 1-3.776-1.152c-1.13-.768-2.037-1.813-2.72-3.136-.682-1.323-1.024-2.827-1.024-4.512 0-1.685.342-3.19 1.024-4.512.683-1.323 1.611-2.357 2.784-3.104 1.174-.747 2.496-1.12 3.968-1.12.854 0 1.632.128 2.336.384a5.61 5.61 0 0 1 1.856 1.024c.534.448.971.96 1.312 1.536.363.576.608 1.195.736 1.856l-.864-.224v-4.224h3.968V75h-4v-4.032l.928-.16c-.149.576-.426 1.141-.832 1.696a6.296 6.296 0 0 1-1.472 1.44 7.982 7.982 0 0 1-1.952.992 6.597 6.597 0 0 1-2.272.384Zm1.088-3.488c.918 0 1.728-.224 2.432-.672a4.459 4.459 0 0 0 1.632-1.856c.406-.81.608-1.739.608-2.784 0-1.024-.202-1.93-.608-2.72a4.459 4.459 0 0 0-1.632-1.856c-.704-.448-1.514-.672-2.432-.672-.917 0-1.728.224-2.432.672-.682.448-1.216 1.067-1.6 1.856-.384.79-.576 1.696-.576 2.72 0 1.045.192 1.973.576 2.784.384.79.918 1.408 1.6 1.856.704.448 1.515.672 2.432.672ZM451.69 75V58.136h3.936V75h-3.936Zm1.92-20.448c-.79 0-1.408-.192-1.856-.576-.427-.405-.64-.97-.64-1.696 0-.683.224-1.237.672-1.664.448-.427 1.056-.64 1.824-.64.81 0 1.429.203 1.856.608.448.384.672.95.672 1.696 0 .661-.224 1.205-.672 1.632-.448.427-1.067.64-1.856.64ZM460.649 75V51.32h3.968V75h-3.968Zm14.225.32c-1.494 0-2.838-.245-4.032-.736-1.174-.512-2.134-1.237-2.88-2.176l2.56-2.208c.64.725 1.354 1.248 2.144 1.568.789.32 1.621.48 2.495.48.363 0 .683-.043.961-.128.298-.085.554-.213.768-.384.213-.17.373-.363.48-.576.128-.235.192-.49.192-.768 0-.512-.192-.917-.576-1.216-.214-.15-.555-.31-1.024-.48a14.317 14.317 0 0 0-1.76-.512c-1.152-.299-2.112-.64-2.88-1.024-.768-.405-1.366-.853-1.792-1.344a4.314 4.314 0 0 1-.832-1.376 5.222 5.222 0 0 1-.256-1.664c0-.747.16-1.419.48-2.016.341-.619.8-1.152 1.376-1.6a6.198 6.198 0 0 1 2.016-1.024 8.166 8.166 0 0 1 2.4-.352 9.41 9.41 0 0 1 2.464.32c.81.213 1.557.523 2.24.928a6.56 6.56 0 0 1 1.792 1.408l-2.176 2.4a8.035 8.035 0 0 0-1.344-1.024 6.94 6.94 0 0 0-1.44-.704c-.491-.192-.95-.288-1.376-.288-.406 0-.768.043-1.088.128-.32.064-.587.17-.8.32-.214.15-.384.341-.512.576-.107.213-.16.47-.16.768.021.256.085.501.192.736.128.213.298.395.512.544.234.15.586.32 1.056.512.469.192 1.077.373 1.824.544 1.045.277 1.92.587 2.624.928.704.341 1.258.736 1.664 1.184.405.384.693.832.864 1.344.17.512.256 1.077.256 1.696a4.445 4.445 0 0 1-.864 2.688c-.555.79-1.323 1.408-2.304 1.856-.96.448-2.048.672-3.264.672Z" fill="#0284C7"/><defs><clipPath id="a"><path fill="#fff" d="M91 127h418v255H91z"/></clipPath></defs></svg>
