<svg viewBox="0 0 1600 1200" fill="none" xmlns="http://www.w3.org/2000/svg"><g clip-path="url(#a)"><path d="M1066.52 571.206s-20.58 2.324-21.91 34.191c-1.11 26.556-3.37 41.355 7.44 46.896 3.86 1.98 8.4 2.154 12.52.798l44.1-14.499s.67-47.8-14.6-59.419-27.55-7.967-27.55-7.967Z" fill="#36344E"/><path d="m1090.83 644.459-22.32 7.338v-32.126h20.25l2.07 24.788ZM1022.6 826.84c-1.21 7.361-6.12 12.639-10.96 11.789-4.85-.85-7.79-7.506-6.58-14.869.44-2.95 1.61-5.743 3.4-8.13l5.53-31.115 15.05 3.15-7.05 30.34c.93 2.87 1.14 5.9.61 8.835Zm51.1 206.93h-20.9l-12.13-111.701h32.31l.72 111.701Z" fill="#FAAFB2"/><path d="M1032.44 1051.72c-2.2 0-4.16-.05-5.63-.19-5.56-.51-10.85-4.61-13.52-7a3.88 3.88 0 0 1-1.16-1.99c-.17-.76-.1-1.56.21-2.29a3.769 3.769 0 0 1 2.44-2.17l14.68-4.19 23.76-16.03.26.47c.1.18 2.43 4.38 3.21 7.23.3 1.08.22 1.98-.23 2.67-.27.41-.65.73-1.1.92.43.45 1.78 1.37 5.93 2.03 6.06.96 7.33-5.32 7.38-5.59l.04-.2.18-.12c2.89-1.86 4.66-2.71 5.28-2.52.38.11 1.02.3 2.74 17.41.17.53 1.38 4.47.56 8.23-.9 4.1-18.78 2.69-22.36 2.37-.1.01-13.49.96-22.67.96Z" fill="#36344E"/><path d="M1120.93 1033.77h-20.91l-12.12-111.701h32.31l.72 111.701Z" fill="#FAAFB2"/><path d="M1079.66 1051.72c-2.19 0-4.15-.05-5.63-.19-5.55-.51-10.84-4.61-13.51-7-.58-.53-.99-1.22-1.16-1.99-.17-.76-.1-1.56.21-2.29.21-.52.55-.99.97-1.36.42-.38.93-.65 1.47-.81l14.67-4.19 23.76-16.03.27.47c.1.18 2.43 4.38 3.21 7.23.3 1.08.22 1.98-.23 2.67-.27.41-.65.73-1.1.92.43.45 1.78 1.37 5.93 2.03 6.06.96 7.33-5.32 7.38-5.59l.04-.2.18-.12c2.89-1.86 4.66-2.7 5.27-2.52.39.11 1.03.3 2.75 17.41.17.53 1.38 4.47.56 8.23-.9 4.1-18.79 2.69-22.36 2.37-.1.01-13.5.96-22.68.96Z" fill="#36344E"/><path d="M1126.94 759.421h-101.58l36.52-120.165h40.5l24.56 120.165Z" fill="#DFDFE0"/><path d="M1068.27 639.274s-25.23-.664-27.88 5.975c-2.66 6.639-33.86 164.647-33.86 164.647h20.58l41.16-170.622Z" fill="#DFDFE0"/><path d="M1071.27 628.565c12.29 0 22.24-9.958 22.24-22.241s-9.95-22.241-22.24-22.241c-12.28 0-22.24 9.958-22.24 22.241s9.96 22.241 22.24 22.241Z" fill="#FAAFB2"/><path d="M1065.19 579.505s-12.24 49.697 1.37 72.933l-19.17-4.071s-7.43-54.395 7.51-64.284l10.29-4.578Zm40.64 179.916h-66.66l-36.47 149.687c-.67 6.322 3.34 12.22 9.48 13.865 20.02 5.359 68.03 12.95 140.7-8.196 7-2.035 10.97-9.412 8.77-16.358l-55.82-138.998Z" fill="#36344E"/><path d="m1078.88 639.256 20.73-.913c4.43.335 8.72 1.701 12.52 3.988a28.52 28.52 0 0 1 9.4 9.186c14.64 23.155 42.06 71.971 17.58 78.659-32.25 8.812-47.88-40.238-47.88-40.238l-12.35-50.682Z" fill="#DFDFE0"/><path d="M1071.77 653.798c-4.26-6.123-4.42-13.33-.35-16.096s10.82-.043 15.08 6.083a17.98 17.98 0 0 1 3.22 8.2l17.71 26.179-12.99 8.227-16.08-26.68a18.174 18.174 0 0 1-6.59-5.913Z" fill="#FAAFB2"/><path d="m1082.25 674.974 14.63-13.468 28.93 26.936-26.9 18.393-16.66-31.861Z" fill="#DFDFE0"/><path d="M824.677 608.627H365.408c-17.898 0-32.408 14.51-32.408 32.408 0 17.898 14.51 32.408 32.408 32.408h459.269c17.898 0 32.408-14.51 32.408-32.408 0-17.898-14.51-32.408-32.408-32.408Z" fill="#6C63FF"/><path d="M601.875 772.402c-16.233 0-29.44-13.206-29.44-29.44s13.207-29.439 29.44-29.439 29.44 13.207 29.44 29.44-13.207 29.44-29.44 29.44v-.001Zm0-50.879c-11.822 0-21.44 9.618-21.44 21.44 0 11.822 9.618 21.44 21.44 21.44 11.822 0 21.44-9.618 21.44-21.44 0-11.822-9.618-21.44-21.44-21.44Z" fill="#484662"/><path d="M657.408 796.512a3.982 3.982 0 0 1-2.602-.964l-37.213-31.91a3.996 3.996 0 0 1-.404-5.615 3.997 3.997 0 0 1 5.611-.458l37.213 31.91a4.001 4.001 0 0 1-2.605 7.037Z" fill="#484662"/><path d="M536.307 1051.95c0 .66.53 1.19 1.19 1.19h729.293c.66 0 1.19-.53 1.19-1.19 0-.66-.53-1.19-1.19-1.19H537.497c-.66 0-1.19.53-1.19 1.19Z" fill="#484565"/><path d="M852.97 575.953h-95.357a4.115 4.115 0 1 0 0 8.23h95.357a4.115 4.115 0 1 0 0-8.23ZM432.472 482h-95.357a4.115 4.115 0 1 0 0 8.23h95.357a4.115 4.115 0 1 0 0-8.23ZM616.993 517.914H337.115a4.115 4.115 0 1 0 0 8.23h279.878a4.115 4.115 0 1 0 0-8.23Z" fill="#DFDFE0"/></g><path d="M436.024 331v-67.2h11.232l38.976 52.512-2.112.384c-.256-1.792-.48-3.616-.672-5.472a966.49 966.49 0 0 1-.576-5.952 1208.89 1208.89 0 0 1-.384-6.432c-.064-2.24-.128-4.576-.192-7.008a307.64 307.64 0 0 1-.096-7.872V263.8h12.384V331H483.16l-39.168-51.744 2.496-.672c.32 3.584.576 6.656.768 9.216.256 2.496.448 4.672.576 6.528.128 1.792.224 3.296.288 4.512.128 1.216.192 2.336.192 3.36.064.96.096 1.888.096 2.784V331h-12.384Zm93.586.96c-4.16 0-7.936-1.152-11.328-3.456-3.392-2.304-6.112-5.44-8.16-9.408-2.048-3.968-3.072-8.48-3.072-13.536 0-5.056 1.024-9.568 3.072-13.536s4.832-7.072 8.352-9.312c3.52-2.24 7.488-3.36 11.904-3.36 2.56 0 4.896.384 7.008 1.152 2.112.704 3.968 1.728 5.568 3.072a17.937 17.937 0 0 1 3.936 4.608 16.112 16.112 0 0 1 2.208 5.568l-2.592-.672v-12.672h11.904V331h-12v-12.096l2.784-.48c-.448 1.728-1.28 3.424-2.496 5.088-1.152 1.6-2.624 3.04-4.416 4.32-1.728 1.216-3.68 2.208-5.856 2.976-2.112.768-4.384 1.152-6.816 1.152Zm3.264-10.464c2.752 0 5.184-.672 7.296-2.016 2.112-1.344 3.744-3.2 4.896-5.568 1.216-2.432 1.824-5.216 1.824-8.352 0-3.072-.608-5.792-1.824-8.16-1.152-2.368-2.784-4.224-4.896-5.568-2.112-1.344-4.544-2.016-7.296-2.016-2.752 0-5.184.672-7.296 2.016-2.048 1.344-3.648 3.2-4.8 5.568-1.152 2.368-1.728 5.088-1.728 8.16 0 3.136.576 5.92 1.728 8.352 1.152 2.368 2.752 4.224 4.8 5.568 2.112 1.344 4.544 2.016 7.296 2.016ZM572.1 331v-50.592h11.52l.192 10.368-2.208 1.152c.64-2.304 1.888-4.384 3.744-6.24 1.856-1.92 4.064-3.456 6.624-4.608 2.56-1.152 5.184-1.728 7.872-1.728 3.84 0 7.04.768 9.6 2.304 2.624 1.536 4.576 3.84 5.856 6.912 1.344 3.072 2.016 6.912 2.016 11.52V331h-11.808v-30.048c0-2.56-.352-4.672-1.056-6.336-.704-1.728-1.792-2.976-3.264-3.744-1.472-.832-3.264-1.216-5.376-1.152-1.728 0-3.328.288-4.8.864a10.783 10.783 0 0 0-3.744 2.304 11.795 11.795 0 0 0-2.496 3.36c-.576 1.28-.864 2.688-.864 4.224V331H572.1Zm81.636.96c-5.056 0-9.568-1.12-13.536-3.36-3.968-2.304-7.104-5.44-9.408-9.408-2.304-3.968-3.456-8.48-3.456-13.536 0-5.056 1.152-9.568 3.456-13.536 2.304-3.968 5.44-7.072 9.408-9.312 3.968-2.304 8.48-3.456 13.536-3.456 4.992 0 9.472 1.152 13.44 3.456 3.968 2.24 7.072 5.344 9.312 9.312 2.304 3.968 3.456 8.48 3.456 13.536 0 5.056-1.152 9.568-3.456 13.536-2.24 3.968-5.344 7.104-9.312 9.408-3.968 2.24-8.448 3.36-13.44 3.36Zm0-10.464c2.752 0 5.184-.704 7.296-2.112 2.176-1.408 3.872-3.296 5.088-5.664 1.28-2.368 1.888-5.056 1.824-8.064.064-3.072-.544-5.792-1.824-8.16-1.216-2.368-2.912-4.224-5.088-5.568-2.112-1.408-4.544-2.112-7.296-2.112-2.752 0-5.248.704-7.488 2.112-2.176 1.344-3.872 3.232-5.088 5.664-1.216 2.368-1.824 5.056-1.824 8.064s.608 5.696 1.824 8.064c1.216 2.368 2.912 4.256 5.088 5.664 2.24 1.408 4.736 2.112 7.488 2.112ZM718.821 331v-11.04h11.04v-45.12h-11.04V263.8h34.56v11.04h-11.04v45.12h11.04V331h-34.56Zm50.484 0v-67.2h26.976c4.864 0 9.248.8 13.152 2.4 3.968 1.6 7.36 3.904 10.176 6.912 2.88 3.008 5.056 6.56 6.528 10.656 1.536 4.096 2.304 8.64 2.304 13.632 0 4.992-.768 9.568-2.304 13.728-1.472 4.096-3.616 7.648-6.432 10.656-2.816 2.944-6.208 5.216-10.176 6.816-3.968 1.6-8.384 2.4-13.248 2.4h-26.976Zm12.48-9.696-.96-1.824h14.976c3.136 0 5.92-.512 8.352-1.536 2.496-1.024 4.608-2.496 6.336-4.416 1.728-1.92 3.04-4.224 3.936-6.912.896-2.752 1.344-5.824 1.344-9.216 0-3.392-.448-6.432-1.344-9.12-.896-2.752-2.24-5.088-4.032-7.008-1.728-1.92-3.808-3.392-6.24-4.416-2.432-1.024-5.216-1.536-8.352-1.536h-15.264l1.248-1.632v47.616ZM900.804 331l-14.4-19.488-2.688-3.648-20.832-27.456h14.592l14.016 19.008 2.976 4.032L915.108 331h-14.304Zm-38.016 0 20.064-26.88 6.72 8.064L876.708 331h-13.92Zm31.68-23.616-6.432-7.968 11.616-19.008h13.92l-19.104 26.976ZM953.899 331v-67.2h29.184c4.032 0 7.712.96 11.04 2.88 3.328 1.856 5.957 4.416 7.877 7.68 1.98 3.2 2.97 6.816 2.97 10.848 0 3.84-.99 7.392-2.97 10.656-1.92 3.2-4.549 5.76-7.877 7.68-3.264 1.856-6.944 2.784-11.04 2.784h-16.992V331h-12.192Zm38.976 0-17.088-30.336 12.864-2.4 19.009 32.832-14.785-.096Zm-26.784-35.52h17.088c1.856 0 3.456-.416 4.8-1.248 1.408-.896 2.496-2.112 3.264-3.648.768-1.536 1.152-3.232 1.152-5.088 0-2.112-.48-3.936-1.44-5.472-.96-1.536-2.304-2.752-4.032-3.648-1.728-.896-3.712-1.344-5.952-1.344h-14.88v20.448Zm69.859 36.48c-4.16 0-7.93-1.152-11.32-3.456-3.4-2.304-6.12-5.44-8.16-9.408-2.05-3.968-3.08-8.48-3.08-13.536 0-5.056 1.03-9.568 3.08-13.536 2.04-3.968 4.83-7.072 8.35-9.312 3.52-2.24 7.49-3.36 11.9-3.36 2.56 0 4.9.384 7.01 1.152 2.11.704 3.97 1.728 5.57 3.072s2.91 2.88 3.93 4.608a15.999 15.999 0 0 1 2.21 5.568l-2.59-.672v-12.672h11.9V331h-12v-12.096l2.79-.48c-.45 1.728-1.28 3.424-2.5 5.088-1.15 1.6-2.62 3.04-4.41 4.32-1.73 1.216-3.68 2.208-5.86 2.976-2.11.768-4.38 1.152-6.82 1.152Zm3.27-10.464c2.75 0 5.18-.672 7.29-2.016 2.12-1.344 3.75-3.2 4.9-5.568 1.22-2.432 1.82-5.216 1.82-8.352 0-3.072-.6-5.792-1.82-8.16-1.15-2.368-2.78-4.224-4.9-5.568-2.11-1.344-4.54-2.016-7.29-2.016s-5.19.672-7.3 2.016c-2.05 1.344-3.65 3.2-4.8 5.568-1.15 2.368-1.73 5.088-1.73 8.16 0 3.136.58 5.92 1.73 8.352 1.15 2.368 2.75 4.224 4.8 5.568 2.11 1.344 4.55 2.016 7.3 2.016Zm40.57 9.504v-50.592h11.81V331h-11.81Zm5.76-61.344c-2.37 0-4.23-.576-5.57-1.728-1.28-1.216-1.92-2.912-1.92-5.088 0-2.048.67-3.712 2.02-4.992 1.34-1.28 3.16-1.92 5.47-1.92 2.43 0 4.29.608 5.57 1.824 1.34 1.152 2.01 2.848 2.01 5.088 0 1.984-.67 3.616-2.01 4.896-1.35 1.28-3.2 1.92-5.57 1.92ZM1106.66 331v-71.04h11.91V331h-11.91Zm42.68.96c-4.48 0-8.51-.736-12.1-2.208-3.52-1.536-6.4-3.712-8.64-6.528l7.68-6.624c1.92 2.176 4.07 3.744 6.44 4.704 2.36.96 4.86 1.44 7.48 1.44 1.09 0 2.05-.128 2.88-.384.9-.256 1.67-.64 2.31-1.152.64-.512 1.12-1.088 1.44-1.728.38-.704.57-1.472.57-2.304 0-1.536-.57-2.752-1.72-3.648-.64-.448-1.67-.928-3.08-1.44-1.34-.512-3.1-1.024-5.28-1.536-3.45-.896-6.33-1.92-8.64-3.072-2.3-1.216-4.09-2.56-5.37-4.032a13.009 13.009 0 0 1-2.5-4.128c-.51-1.536-.77-3.2-.77-4.992 0-2.24.48-4.256 1.44-6.048a15.62 15.62 0 0 1 4.13-4.8c1.73-1.344 3.75-2.368 6.05-3.072 2.3-.704 4.7-1.056 7.2-1.056 2.56 0 5.02.32 7.39.96 2.43.64 4.67 1.568 6.72 2.784 2.11 1.152 3.91 2.56 5.38 4.224l-6.53 7.2a24.166 24.166 0 0 0-4.03-3.072 20.82 20.82 0 0 0-4.32-2.112c-1.47-.576-2.85-.864-4.13-.864-1.22 0-2.3.128-3.26.384-.96.192-1.76.512-2.4.96a4.969 4.969 0 0 0-1.54 1.728c-.32.64-.48 1.408-.48 2.304.06.768.26 1.504.58 2.208.38.64.89 1.184 1.53 1.632.71.448 1.76.96 3.17 1.536 1.41.576 3.23 1.12 5.47 1.632 3.14.832 5.76 1.76 7.87 2.784 2.12 1.024 3.78 2.208 5 3.552 1.21 1.152 2.08 2.496 2.59 4.032.51 1.536.77 3.232.77 5.088 0 3.008-.87 5.696-2.6 8.064-1.66 2.368-3.96 4.224-6.91 5.568-2.88 1.344-6.14 2.016-9.79 2.016Z" fill="#6C63FF"/><defs><clipPath id="a"><path fill="#fff" d="M333 482h934.977v571.136H333z"/></clipPath></defs></svg>
