<svg xmlns="http://www.w3.org/2000/svg" viewBox="0 0 1600 1200"><path d="M972.53 1014.55h-24.19V750.48c0-29.1-26.42-52.81-58.83-52.81H479.8c-32.42 0-58.83 23.71-58.83 52.81v264.07h-24.2V750.48c0-39.9 37.26-72.37 83.03-72.37h409.71c45.77 0 83.02 32.47 83.02 72.37v264.07Z" fill="#3c2c5b"/><path d="M787.72 678.11H682.46l-6.75-38.21-6.76-38.46h105.26l2.47 13.9 11.04 62.77Z" fill="#ff4f32"/><path d="m675.71 639.9-6.76-38.46h105.26l2.47 13.9-100.97 24.56Z" fill="#7b1100" opacity=".2"/><path d="M859.58 608.71H586.17c-18.19 0-35.47-14.68-38.72-32.87l-33.14-187.65c-3.25-18.19 8.97-32.87 27.03-32.87h273.54c18.19 0 35.48 14.68 38.72 32.87l33.01 187.78c3.25 18.06-8.84 32.74-27.03 32.74Z" fill="#ff4f32"/><path d="M845.42 588.96h-252.1c-11.7 0-22.74-9.48-24.82-21.05l-30.28-171.53c-2.08-11.69 5.72-21.05 17.42-21.05h252.09c11.7 0 22.74 9.49 24.82 21.05l30.28 171.53c1.95 11.57-5.85 21.05-17.41 21.05Z" fill="#fff"/><path d="M775.51 608.71H670.25" stroke="#7b1100" stroke-width="4" stroke-linecap="round" stroke-linejoin="round" fill="none"/><path d="M697.88 417.15c33.43 0 65.1 27.03 70.84 60.46 5.74 33.43-18.49 60.46-51.84 60.46-33.36 0-63.35-27.03-69.09-60.46-5.74-33.43 16.66-60.46 50.09-60.46Z" fill="#61ccff"/><path d="M651.37 445.78h102.85m-106.43 31.83h120.93M662.4 509.6l102.73-.24m-48.25 28.71-19-120.92m0 0s-68.84 53.74 19 120.92m-18.92-120.92s84.21 52.14 18.92 120.92" stroke="#000" stroke-width="4" stroke-linecap="round" stroke-linejoin="round" fill="none"/><path d="M1051.68 375.89c-24.31-.96-26.7-11.01-35.99 2.96-1.14 1.73-15.02-.38-15.98 1.92-2.97 8.04-4.5 20.1-6.13 30.91 0 0-8.61 1.73-9.28 5.36-.67 4.21 6.89 10.15 6.89 10.15-3.16 9.86-4.69 21.15 2.49 31.2 10.34 14.55 36.66 10.72 36.66 10.72l.29 6.7 24.21 12.16 40.78-12.16.19-5.36c-2.4-20.86-9.19-58.86-9.19-69.87 0-30.15-6.99-23.64-34.94-24.69Z" fill="#eaa58b"/><path d="m1030.43 469.11.29 6.7 10.72 8.71 10.72-15.31c1.92-2.78-.86-6.22-4.02-5.08l-17.71 4.98Z" opacity=".3"/><path d="M1002.58 375.12c9.38-14.07 25.08-21.34 49.68-20.39 28.14 1.06 45.08 17.61 45.17 47.96 0 10.72-.95 46.9-1.62 67.76 0 0-22.02-.29-31.68-12.82 0 0 20.29-19.34 10.62-33.79s-31.87 2.87-31.87 2.87c-14.65-6.89-9.38-21.44-8.04-24.5.09-.19-.1-.48-.39-.39-4.21 1.34-29.28 8.14-22.68-15.12.1-.29-.1-.48-.38-.48-9.29-.19-11.68-5.45-11.68-5.45.77-2.01 1.82-3.83 2.87-5.65Z" fill="#c65a42"/><path d="M999.81 435.04c6.79 1.15 10.62-4.6 10.62-4.6m20 38.67 15.51-4.31m3.92-24.88 8.33-3.73" stroke="#000" stroke-width="4" stroke-linecap="round" stroke-linejoin="round" fill="none"/><path d="M1005.17 415.13a2.97 2.97 0 0 1 0-5.94c1.63 0 2.96 1.33 2.96 2.97 0 1.64-1.33 2.97-2.96 2.97Z" fill="#231f20"/><path d="m1030.72 946.91 2.68-6.22a410.546 410.546 0 0 0-4.88-32.45l-4.98-14.45-96.76 1.53 2.1 12.64c2.3 7.18 3.83 14.55 4.88 22.01l25.85 50.63 71.11-33.69Z" fill="#eaa58b"/><path d="M1088.34 710.21c-6.89-29.76-17.9-48.52-17.9-48.52l-3.25 3.92s-127.68 14.26-166.83 60.78c-31.97 37.9 12.83 130.17 28.62 181.85h99.54c-8.61-44.79-22.88-84.89-39.91-118.68h22.87c62.03.1 86.24-38.29 76.86-79.35Z" fill="#ffc930"/><path d="M900.26 726.39c39.15-46.52 166.83-60.78 166.83-60.78l3.26-3.92s11 18.76 17.9 48.52c9.38 41.06-17.52 66.52-79.64 66.33l-20 13.02c3.44 6.89 6.7 13.78 9.95 21.25 4.88 11.01-52.35 20.67-55.22 97.43h-14.36c-15.79-51.68-60.59-143.95-28.72-181.85Z" fill="#cb9a10" opacity=".3"/><path d="M928.98 908.24h99.54" stroke="#cb9a10" stroke-width="4" stroke-linecap="round" stroke-linejoin="round" fill="none"/><path d="M900.84 995.34c10.34-17.22 33.21-21.82 33.4-56.56 0-1.92-.38-7.85-.48-8.81h23.07c7.28-.09 13.11 5.74 13.21 13.02 0 .76-.1 1.53-.19 2.39l-3.64 22.59s25.36-25.36 67.19-27.28c.96 7.56 1.44 15.51 1.92 23.36.19 2.77.28 5.93.47 8.8.29 7.18.96 14.93.96 22.49l-.76 1.44-134.86-1.05c0-.1-.29-.39-.29-.39Z" fill="#61ccff"/><path d="M900.84 995.34h135.91c.19 6.23 0 12.83-.19 19.43h-140.7c-.09-4.59.67-9.09 2.01-13.49.86-2.11 1.82-4.12 2.97-5.94Z" fill="#fff"/><path d="m931.37 957.35 15.41 6.5m-22.11 5.84 12.35 9.48m29.29-11.49-5.17 27.66" stroke="#183340" stroke-width="4" stroke-linecap="round" stroke-linejoin="round" fill="none"/><path d="m904.67 906.52-77.82-45.94-12.06 11.1c-2.2 11.39-3.35 19.91-5.17 23.64l5.27 57.72h69.87l9.67-4.5c4.11-11.1 6.79-20.1 9.76-30.92l.48-11.1Z" fill="#eaa58b"/><path d="m1118.3 692.22-5.65-34.17-115.43 3.35s-108.25 15.03-139.26 48.91c-26.32 32.92-25.27 66.81-35.51 120.69-2.68 14.46-5.36 29-7.66 40.68l89.4 45.94c15.7-58.86 17.32-90.25 17.23-128.25l117.44.29c51.87.47 90.35-47.19 79.44-97.44Z" fill="#ffc930"/><path d="m814.79 871.68 89.4 45.94" stroke="#cb9a10" stroke-width="4" stroke-linecap="round" stroke-linejoin="round" fill="none"/><path d="M751.24 937.05c16.94-10.81 39.82-4.97 55.61-35.98.95-1.73 1.72-3.64 2.68-5.65 0-.1.09-.19.19-.19l16.27 7.85c7.56 3.63 10.82 12.73 7.18 20.29-.38.76-.77 1.43-1.25 2.1l-11.77 16.94s34.94-11.86 74.28 6.13c-2.49 6.7-5.17 13.5-7.95 20.39-1.05 2.68-2.39 5.45-3.44 8.32-2.78 6.7-9.58 20.68-9.58 20.68l-2.68 1.34-119.54-60.59c-.19-.38-.1-1.53 0-1.63Z" fill="#61ccff"/><path d="M747.03 940.31c1.34-1.15 2.77-2.3 4.21-3.26l122.22 60.88c-2.68 5.65-5.83 11.01-8.99 16.84l-125.96-62.78c2.1-4.5 4.98-8.43 8.52-11.68Z" fill="#fff"/><path d="m794.69 917.53 10.34 12.44m-22.4-4.69 6.22 13.02m31.21 4.02-16.75 20.67" stroke="#183340" stroke-width="4" stroke-linecap="round" stroke-linejoin="round" fill="none"/><path d="M915.48 869.38c5.65-31.01 6.13-53.69 5.94-80.01m67.19.19-67.19-.19" stroke="#cb9a10" stroke-width="4" stroke-linecap="round" stroke-linejoin="round" fill="none"/><path d="M930.8 587.41c16.65 7.85 29.86 14.36 29.86 14.36s8.61-47.86 19.14-74.66c10.53-26.8 25.84-41.15 50.73-43.07l.19-8.23h64.9v9c30.34 3.92 48.81 45.08 61.25 89.11 12.44 44.03 14.74 110.07-38.57 118.2l-6.7-30.72-98.97.19s-15.6 21.44-48.14 17.61c-19.34-2.3-47.09-18.28-69.11-32.83l-2.49-2.87 28.62-56.47 9.29.38Z" fill="#61ccff"/><path d="M1138.59 684.85c-6.22 3.83-12.92 6.12-20.29 7.27l-6.7-30.72 5.93-44.89c8.62 0 4.89 17.8 9.67 40.77 4.12 19.82 11.39 27.57 11.39 27.57Z" fill="#161616" opacity=".3"/><path d="M1012.63 661.59c9.19-16.37 21.73-46.42 28.43-83.75m79.06 19.43-8.52 64.13m-150.94-59.63 9.76 20.67m164.44 13.79-19.43-3.83" stroke="#161616" stroke-width="4" stroke-linecap="round" stroke-linejoin="round" fill="none"/><path d="m840.44 574.4 9.48 9.47c.38.38.96.77 1.53.86 2.58.58 10.24 2.2 17.32 1.73 2.59-.2 3.93-3.16 2.4-5.17-4.41-5.94-11.2-16.37-7.18-19.72 3.54-2.97 39.72 13.11 66.81 25.84l-35.42 58.96c-15.02-9.95-27.28-19.04-32.35-22.59-7.37-5.36-13.11-12.82-16.08-21.53-.09-.38-.29-.67-.48-.96-2.01-2.49-12.25-15.89-11.48-24.98.19-2.68 3.54-3.83 5.45-1.91Z" fill="#eaa58b"/><path d="M1012.63 661.59c15.99-25.27 26.32-73.22 26.32-73.22h1.06c6.5 1.63 9.57 5.84 11.39 17.42 2.01 15.7 6.98 43.45 19.23 55.7l-58 .1Z" fill="#161616" opacity=".3"/><path d="M846.76 601.77c6.7 4.79 25.17 3.83 25.17 3.83m-15.69 12.25c8.71 3.06 20.19 3.06 20.19 3.06m-5.26-39.62 11 12.82" stroke="#000" stroke-width="4" stroke-linecap="round" stroke-linejoin="round" fill="none"/><path d="M1022.15 813.87c6.26 0 11.42 5.02 11.42 11.23l-.09 29.39v121.58c0 6.21-5.07 11.23-11.33 11.23s-11.33-5.02-11.33-11.23V825.1c-.09-6.21 4.98-11.23 11.33-11.23Z" fill="#fff"/><path d="M1022.15 813.87c-6.35 0-11.42 5.02-11.33 11.23v39.61l22.66-10.22.09-29.39c-.09-6.21-5.16-11.23-11.42-11.23Z" fill="#2c2c2c" opacity=".2"/><path d="M1101.62 1002.36c-1.57-1.37-78.83-68.27-78.83-68.27h-1.38s-77.26 66.9-78.82 68.27c-1.94 1.1-4.05 6.48-1.01 9.95 2.39 2.92 6.63 3.65 9.85 1.55.18-.09 42.45-28.84 67.77-46.09a5.013 5.013 0 0 1 5.71 0c25.33 17.25 67.69 46 67.78 46.09 3.31 2.1 7.64 1.28 9.85-1.55 3.13-3.56 1.01-8.85-.92-9.95Z" fill="#3c2c5b"/><path d="M1003.73 929.7h36.75c2.21 0 3.95 1.74 3.95 3.93v19.53h-44.75v-19.53c.09-2.19 1.84-3.93 4.05-3.93Zm-3.96-122.95h44.76v30.4c0 1.55-1.29 2.92-2.95 2.92h-38.95c-1.57 0-2.86-1.28-2.86-2.92v-30.4Z" fill="#3c2c5b"/><path d="M955.94 788.68h132.33c8.84 0 15.93 7.12 15.93 15.79 0 8.76-7.18 15.79-15.93 15.79H955.94c-8.84 0-15.93-7.12-15.93-15.79 0-8.67 7.18-15.79 15.93-15.79Z" fill="#3c2c5b"/><path d="m602.04 678.41-20.99-119.14H450.57l20.99 119.14h130.48Z" fill="#61ccff"/><path d="m515.93 559.27 21.04 119.14" stroke="#000" stroke-width="4" stroke-linecap="round" stroke-linejoin="round" fill="none"/><path d="M544.35 652.31h40.39l-6.52-36.88h-40.39l6.52 36.88ZM474 626.21h40.4l-6.53-36.87h-40.39l6.52 36.87Z" fill="#fff"/><path d="M587.01 664.79h-40.28m24.4-91.34h-40.28m-26.1 0h-40.28m56.73 91.34h-40.28m68.36-75.45h-16.16m40.28 0h-16.17m-6.24 10.21h-16.17m40.28 0h-16.17m-65.81 41.98h-16.17m40.28 0h-16.17m-6.24 10.21h-16.16m40.27 0h-16.16" stroke="#000" stroke-width="4" stroke-linecap="round" stroke-linejoin="round" fill="none"/><path d="M378.52 786.82c17.17 0 31.17 14 31.17 31.17v19.15h-62.34v-19.15c0-17.17 13.89-31.17 31.17-31.17Z" stroke="#6f5712" stroke-width="4" stroke-linecap="round" stroke-linejoin="round" fill="none"/><path d="M378.52 817.45c47.47 0 85.86 38.39 85.86 85.86v111.02H292.66V903.31c0-47.36 38.39-85.86 85.86-85.86Z" fill="#ff4f32"/><path d="M464.38 938.86H292.66v75.47h171.72v-75.47Z" fill="#ffc930"/><path d="M292.66 938.86h171.72v31.83l-171.72-15.97v-15.86Z" fill="#6f5712" opacity=".3"/><path d="M333.57 978.02h89.8" stroke="#6f5712" stroke-width="4" stroke-linecap="round" stroke-linejoin="round" fill="none"/><path d="m378.46 859.04-26.39 26.37 26.39 26.38 26.37-26.38-26.37-26.37Z" fill="#ffc930"/><path d="m1341.73 1015.88.02-1.79c0-30.81 0-59.91-37.93-96.61-1.27-1.23-2.49-2.39-3.67-3.5-.95-.91-1.87-1.78-2.76-2.63-17.99-17.07-25.43-24.14-38.3-67.18l-.23-.84-.14-.46c-11.41-37.95-16.13-53.66-40.63-58.32-1.62-.33-3.23-.38-4.45-.38-9.2 0-17.83 5.09-22.15 8.13-2.74 1.9-6 2.9-9.41 2.9-1.63 0-3.32-.23-4.9-.69l-22.68-6.66c-.7-.21-1.39-.31-2.22-.31-3.53 0-6.69 2.4-7.69 5.84-.14.51-.22.95-.3 1.54-.61 7.23.14 17.54 7.2 25.6 4.57 5.18 9.75 8.54 14.32 11.51l.09.06c5.8 3.79 10.33 6.75 10.33 11.4v153.52l-3.04-.02c-7.28 0-13.2 5.92-13.2 13.2v5.69h181.74Z" fill="#ff4f32"/><path d="m1267.16 868.33-.11-.26c-2.07-5.36-4.15-11.55-6.74-20.07l-.02-.07-84.11-.02-.02 20.42h91Z" fill="#ffc930"/><path d="M1228.81 892.31c10.74 0 19.48-8.74 19.48-19.48v-61.59c-6.9-17.18-15.73-24.14-30.28-26.68-1.25-.22-2.66-.39-4.45-.39-1.55 0-2.69.04-3.93.24l-.36.07-.02 88.35c.08 10.74 8.85 19.48 19.56 19.48Z" fill="#bc250d"/><path d="M1176.64 905.39c4.9 0 9.27-2.91 11.18-7.51 1.23-2.99 1.23-6.28 0-9.27-1.22-2.99-3.6-5.29-6.59-6.59-1.45-.61-3.06-.92-4.59-.92-4.91 0-9.27 2.91-11.19 7.51a12.197 12.197 0 0 0 0 9.27c1.23 2.99 3.6 5.29 6.59 6.59 1.46.61 2.99.92 4.6.92Z" fill="#3c2c5b"/><path d="M1192.88 808.79c-1.99 0-3.6-1.62-3.6-3.61 0-1.98 1.61-3.6 3.6-3.6s3.6 1.62 3.6 3.6c0 1.99-1.61 3.61-3.6 3.61Z" fill="#5a3a35"/><path d="M1149.65 800.33c5.8 0 10.52-4.75 10.52-10.59v-.23l-5.69-1.71c-.45-.15-.99-.23-1.52-.3l-.63-.01c-4.29 0-7.76 3.18-8.06 7.38-.08 1.2-.16 2.45-.16 3.83v.12l.09.05c1.55.93 3.53 1.46 5.45 1.46Z" fill="#bc250d"/><path d="m1210.34 1015.88.03-5.69c0-7.09 5.76-12.85 12.84-12.85h3.38l.02-.18s-.01-.05-.01-.13c-.34-5.26-1.28-32.53 13.1-52.48l.31-.38-.48.11-.09.04c-3.46 1.46-33.87 15.41-33.94 52.84-.14.02-3.81.86-7.33 3.86-4.19 3.56-6.31 8.5-6.31 14.68v.18h18.48Z" fill="#591d14" opacity=".15"/><path d="M1269.72 924.54c-48.65 11.57-43.29 72.62-43.29 72.62h-3.22c-7.2 0-13.02 5.83-13.02 13.03v4.75" stroke="#bc250d" stroke-width="4" stroke-linecap="round" stroke-linejoin="round" fill="none"/></svg>
