<svg xmlns="http://www.w3.org/2000/svg" viewBox="0 0 1600 1200"><path d="M211.45 995.78c14.9-111.35 113.31-168.2 207.79-148.59 0 0 35.29-119.97 157.61-114.09 0 0 39.6-254.05 261.5-265.03 171.72-8.62 244.64 163.1 248.95 227.78 0 0 270.52-13.33 261.9 300.32l-1137.75-.39Z" fill="#fff"/><path d="M1087.3 695.46c-1.96-26.66-15.29-71.35-42.34-114.48-45.08 57.24-98.4 110.56-159.56 158.39-201.13 157.22-441.46 218.38-648.85 183.88-12.55 20.38-21.18 44.69-25.1 71.74H1349.2c8.23-312.47-261.9-299.53-261.9-299.53Z" fill="#e4e4e4" opacity=".3"/><path d="M419.24 847.19c27.05 9.01 50.58 26.66 67.04 49.79M576.85 733.1c-4.71 18.03-9.02 61.16-9.02 61.16M1087.3 695.46c-16.85-.39-41.16 5.1-61.94 13.72" stroke="#202020" stroke-width="4" stroke-linecap="round" stroke-linejoin="round" fill="none"/><path d="m375.23 465.93-14.49-48.48 34.76 34.02 35.86-68.71-7.9 82.35 74.77-12.54L434 494.4l42.07 75.66-64.76-47.99-29.65 79.43-3.54-81.14-75.26 18.06 63.24-48.33-58.79-40.01 67.92 15.85Z" fill="#cecdce"/><path d="M211.77 713.11c22.43-28.79 45.33-60.66 56-151.71 18.62-158.96 49.86-222.54 84.51-210.22 30.54 10.92 27.24 99.94 34.77 143.49 15.94 92.19 62.34 104.72 95.89 35.75 33.09-68.01 23.63-129.92 110.74-144.98M1000.65 355.82c29.28 61.59 161.42 80.06 251.26 76.46 99.96-4.08 129.69-50.8 99.62-67.23-41.83-22.89-215.86 49.43-171.12 110.58 36.77 50.64 150.37 58.38 159.31 97.71 8.94 39.34-12.96 103.57 35.62 169.26" stroke="#231f20" stroke-width="4" stroke-linecap="round" stroke-linejoin="round" fill="none"/><path d="m400.1 694.3 16.22 16.22a3.549 3.549 0 0 1 0 5.01l-16.9 16.9a3.549 3.549 0 0 1-5.01 0l-16.22-16.22a3.549 3.549 0 0 1 0-5.01l16.9-16.9a3.549 3.549 0 0 1 5.01 0ZM1255.52 634.99l16.09 16.09a3.519 3.519 0 0 1 0 4.97l-16.76 16.76a3.519 3.519 0 0 1-4.97 0l-16.09-16.09a3.519 3.519 0 0 1 0-4.97l16.76-16.76a3.519 3.519 0 0 1 4.97 0ZM905.11 270.35l16.09 16.08a3.519 3.519 0 0 1 0 4.97l-16.76 16.76a3.519 3.519 0 0 1-4.97 0l-16.09-16.08a3.519 3.519 0 0 1 0-4.97l16.76-16.76a3.519 3.519 0 0 1 4.97 0Z" fill="#fff"/><path d="m1237.93 496.72 2.43-47.23 19.94 40.85 53.13-49.26-32.78 70.04 69.77 12.4-69.68 16.7 13.33 79.8-41.97-62.55-51.01 60.64 22.31-72.56-71.93-7.68 70.84-22.74-39.23-53.66 54.85 35.25ZM757.74 255.71l-56.38-25.38 58.05-3.77-22.42-33.58 35.92 17.22 1.9-49.41 19.09 48.08 46.03-45.08-29.91 61.3 66.92-3.2-57.14 32.53 39.4 54.19-58.15-34.2L794.8 340l-20.94-68.45-55.28 32.67 39.16-48.51Z" fill="#cecdce"/><path d="M251.02 995.39h1095.03" stroke="#231f20" stroke-width="4" stroke-linecap="round" stroke-linejoin="round" fill="none"/><path d="M613.52 653.28c0-.09-1.04-12.44-3.65-34.79-2.35-19.66 1.47-23.31 20.52-31.66 12.01-5.31 13.05-12.09 23.75-12.09 11.31 0 28.44-9.83 34.62-4.27 8.43 8.01 15.31 17.31 20.44 27.84.34 0 6.17.26 9.39 1.65.96.35 1.83 1.13 2.26 2.09 1.65 4-2.96 12.09-3.04 12.17 9.65 14.7 11.57 24.79 6.61 34.62-2.52 5.05-7.57 9.48-13.92 12.18-5.56 2.35-12.78 2.61-15.57 2.61h-.95l14.96 35.83-14.79 32.8-80.63-78.98Z" fill="#dd957f"/><path d="M676.49 893.26c-3.65-18.1-8.96-36.01-15.65-53.06-5.57-14.18-10.88-23.4-16.01-32.36-6.43-11.22-12.44-21.92-17.92-40.71-5.82-20.09-2.08-48.53 20.01-63.49 7.91-5.39 19.74-8.96 35.05-10.44l58.89 87.68 22.61.95-7.83 19.23 20.01 56.53-99.16 35.67Z" fill="#ffc930"/><path d="M761.73 994.15c-59.14 0-76.97-57.58-85.24-100.89l82.63-33.93c.61-1.04 59.5-110.03 86.11-143.51 19.92-25.05 40.97-48.62 61.32-71.33 10.62-11.91 20.7-23.13 30.01-33.92 1.65-1.83 11.4-6.61 12.61-8.17l59.15 42.96c-1.22 2.09-.17 8.88-2.35 12.44-9.83 16.79-16.61 28.1-25.05 38.88-3.48 4.44-10.61 13.66-28.01 28.53-20.87 17.83-40.62 34.71-60.71 108.9-14.61 54.1-32.09 93.24-53.49 119.86-21.75 27.05-46.97 40.18-76.98 40.18Z" fill="#61ccff"/><path d="M940.82 605.44c14.62-17.74 35.4-45.4 55.5-72.19 14.87-19.83 28.87-38.54 38.44-50.54 18.35-22.96 25.75-27.57 31.66-27.57 2.87 0 5.66 1.3 8.44 4.09v123.25c-5.31 2.61-11.13 3.91-17.14 3.91-8.69 0-14.96-2.78-15.04-2.78-11.05 25.57-23.4 50.53-36.71 74.19l-65.15-52.36Z" fill="#dd957f"/><path d="M762.34 951.1c-12.09 0-28.09-5.57-35.4-16.18-4.17-6-4.87-12.79-2.09-19.92 3.4-8.61 11.22-12.87 24.1-12.87 2.78 0 5.48.17 7.65.35.7.08 1.39.08 2 .17l.61.09c12.53.95 31.49 2.43 35.4 15.13 2.18 7.13 1.04 14.09-3.3 20.01-5.83 7.91-16.97 13.13-28.45 13.3l-.52-.08ZM901.34 740.43c-6.44 0-11.4-3.04-14.36-8.78-5.22-10.09 3.83-18.96 8.7-23.75.35-.35.7-.69 1.05-1.04l.26-.26c5.39-5.22 13.48-13.14 21.22-13.14 1.56 0 3.04.35 4.52.96 5.05 2.35 8.35 6.44 9.48 11.83 1.48 7.13-1.04 15.66-6.61 22.09-5.13 5.83-14.87 12.09-24.26 12.09ZM850.89 936.75c-22.79-1.22-39.14-12.7-40.71-28.71-1.04-10.7 7.13-17.22 14.96-23.48 4.96-3.92 10-8 12.87-13.05 2.35-4.17 3.57-9.74 4.7-15.05 2.52-11.39 5.13-23.22 18.79-23.22 8.61 0 20.26 5.91 24.44 22.61-10.09 32.71-21.83 59.93-35.05 80.9ZM815.4 812.54c-9.66 0-18.79-3.39-24.96-9.4 16.52-28.96 39.31-67.4 53.92-86.19 11.48 5.83 16.27 22.96 12.79 45.84-4.44 29.48-24.01 48.79-39.49 49.66-.78.09-1.48.09-2.26.09ZM918.3 665.02c-7.83 0-14.7-3.3-20.97-10.26l6.96-7.83c11.48-12.79 22.27-24.88 32.27-36.45 1.48-1.65 2.87-3.39 4.35-5.13l45.58 36.71c-4.79 3.48-11.05 5.39-17.48 5.39-1.66 0-3.22-.09-4.79-.35-1.91-.26-3.74-.43-5.39-.43-8.53 0-12.96 4-17.57 8.26-4.35 4-8.79 8.09-17.22 9.66-2 .26-3.92.43-5.74.43Z" fill="#f1faff"/><path d="M822.53 749.22c-8.52 13.57-18.35 30-27.66 46.27.26.09 25.75 4.7 48.1 7.31 22.36 2.61 56.97 4.35 57.32 4.35 6.7-19.84 13.74-35.58 21.66-48.1l-99.42-9.83Z" fill="#61ccff" opacity=".25"/><path d="M710.41 624.84c-1.91 2.69-9.56 2.43-12.09-.35M662.58 641.01l-10.44-2.61" stroke="#181818" stroke-width="4" stroke-linecap="round" stroke-linejoin="round" fill="none"/><path d="M709.28 807.15c-13.56 0-32.53-5.4-41.49-52.19-7.74-40.45 14.01-61.58 14.18-61.76 6-.61 12.53-.87 19.49-.87 9.82 0 20.78.61 32.44 1.74 13.74 1.39 32.88 4.7 53.06 8.18 31.4 5.39 63.93 10.96 84.37 10.96 11.13 0 25.13.08 39.92.17 14.7.09 30.01.18 42.1.18 13.48 0 21.31-.09 24.09-.35 6.61-.79 16.53-2.52 27.05-4.35 18.01-3.13 38.45-6.7 49.41-6.7 5.13 0 7.74.78 7.91 2.35.96 8.61-18.09 16.44-18.26 16.53.69 0 27.22 1.74 40.88 3.39 9.22 1.13 12 5.65 12.96 8.26.69 2 .17 4 .17 4 .87.18 6.96 2.61 6.96 8.7 0 5.57-4 7.05-7.83 7.83 0 0 1.13 3.74-1.22 7.04-2.17 3.05-6.43 4.79-12.78 5.14 0 0 1.04 2.26-.44 4.61-1.48 2.43-5.74 5.39-17.83 5.82-2.87.09-5.83.26-8.87.35-9.83.44-20.01.87-29.83.87-17.75 0-29.75-1.48-37.84-4.78-.7.17-69.41 14.78-128.73 14.78-26.44 0-51.84-1.91-74.28-3.65-7.39-.61-14.44-1.13-21.4-1.57l-22.61-.87c0 .09-2.7 6.61-7.92 13.05-4.78 6.09-12.78 13.14-23.66 13.14Z" fill="#dd957f"/><path d="M691.63 573.43c-.96-1.04-1.92-2-2.96-2.96-6.18-5.56-15.74-8.61-27.05-8.61-10.7 0-22.18 2.7-34.18 8.01-4.53 2-12.58 8.91-12.27 7.74 2.96-13.57-4.52-31.32-20-44.28-10.79-9.04-23.57-14.17-35.14-14.17-8.79 0-16.18 3.13-20.88 8.69-11.22 13.4-4.43 37.75 15.22 54.19 10.79 9.05 23.57 14.18 35.14 14.18 5.13 0 14.63-3.51 13.75-3.04-3.57 7.48-5.14 15.91-4.18 24.26 2.52 22.36 5.13 32.1 5.22 32.19-.09 0-4.26-.7-10.26-.7-10.79 0-25.75 2.26-35.93 12.96-16.35 17.22-11.39 39.84-11.3 40.01-.18.09-13.22 3.39-26.01 12.53-11.74 8.35-25.75 23.65-25.31 48.36.69 37.66 27.83 62.01 69.06 62.01 2.26 0 4.44-.08 6.61-.43 39.75-2.53 64.1-33.58 64.37-33.92-9.75-22.36-10.44-36.45-10.44-36.54.17-.08 20.96-9.82 32.18-34.79 11.22-24.87 7.05-57.06 6.96-57.4-.18 0-22.01-2.09-30.62-13.14-2.87-3.74-4-8-3.22-12.87 1.74-10.96 12.35-13.22 21.05-13.22 8 0 15.51 5.12 15.48 4.05 0-8.84-2.08-16.06-6.08-23.01-1.23-1.48 11.74-3.05 12.96-7.4 1.04-3.82-9.28-13.78-8.61-13.48 24.96-1.65 26.44-9.13 26.44-9.22ZM698.41 606.22c1.68 0 3.05-1.36 3.05-3.04s-1.37-3.05-3.05-3.05c-1.68 0-3.04 1.37-3.04 3.05 0 1.68 1.36 3.04 3.04 3.04Z" fill="#181818"/><path d="M705.89 692.33c-3.56.09-19.13.18-29.4 1.48M693.89 663.63l-13.66-.78M740.86 780.88l-16.53-1.05" stroke="#181818" stroke-width="4" stroke-linecap="round" stroke-linejoin="round" fill="none"/><path d="m769.56 840.28-20.27 37.32" stroke="#61ccff" stroke-width="4" stroke-linecap="round" stroke-linejoin="round" fill="none"/><path d="m1042.68 583.61 3.22-9.92" stroke="#181818" stroke-width="4" stroke-linecap="round" stroke-linejoin="round" fill="none"/><path d="m675.88 662.76 18.01.87 3.83 9.13-21.84-10Z" fill="#181818" opacity=".25"/><path d="M1043.55 721.04h-13.14" stroke="#181818" stroke-width="4" stroke-linecap="round" stroke-linejoin="round" fill="none"/><path d="M661.01 673.2c6 0 10.87-4.87 10.87-10.88 0-6-4.87-10.87-10.87-10.87-6 0-10.87 4.87-10.87 10.87 0 6.01 4.87 10.88 10.87 10.88Z" fill="#fffbee"/><path d="m724.33 779.83 39.14 2-4.69 11.49-34.45-13.49Z" fill="#252114" opacity=".25"/><path d="m1097.56 736.69-58.19-.69M1096.69 753.22l-57.93-1.05M1082.69 765.4l-44.8.78" stroke="#000" stroke-width="4" stroke-linecap="round" stroke-linejoin="round" fill="none"/></svg>
