<svg xmlns="http://www.w3.org/2000/svg" viewBox="0 0 1600 1200"><path d="M1116.05 346.25s30.86-104.77 107.18-112.72c70.22-7.39 77.61 70.22 77.61 70.22s22.36-29.56 70.22-29.56c36.77 0 60.98 38.8 51.74 72.06h-306.75Z" fill="#fff"/><path d="M348.17 300.14c46.66 0 84.47-37.81 84.47-84.47s-37.81-84.48-84.47-84.48-84.47 37.82-84.47 84.48c0 46.66 37.81 84.47 84.47 84.47Z" fill="#ffc930"/><path d="M314.55 357.62S346.6 257.3 405.82 245.8c62.01-12.02 75.59 59.22 75.59 59.22s101.2-55.91 106.07 52.6H314.55Z" fill="#fff"/><path d="M703.33 636.05v-48.68h533.27c6.15 0 11.13 4.98 11.13 11.13v26.42c0 6.14-4.98 11.13-11.13 11.13H703.33Z" fill="#ffc930"/><path d="M1096.23 278.71H964.95v322.52h131.28V278.71Z" fill="#ffc930"/><path d="M965.29 278.71H834v322.52h131.29V278.71ZM1227.25 278.71h-131.29v322.52h131.29V278.71Z" fill="#ffc930"/><path d="M702.98 601.23V325.34c3.01-26.56 25.47-46.63 52.23-46.63h79.06v322.52H702.98Z" fill="#ffc930"/><path d="M703.05 601.16V401.39c0-.2.34-.27.41 0l32.3 199.84h-32.71v-.07Z" fill="#1b1b1b" opacity=".2"/><path d="M834.14 278.84v322.25M965.08 278.84v322.25M1096.1 278.84v322.25" stroke="#1b1b1b" stroke-width="4" stroke-linecap="round" stroke-linejoin="round" fill="none"/><path d="M702.78 601.23h531.84" stroke="#a3883c" stroke-width="4" stroke-linecap="round" stroke-linejoin="round" fill="none"/><path d="M605.97 556.58h-216.7v114.97h216.7V556.58Z" fill="#ffc930"/><path d="M378.01 607.92c14.21 0 25.74-11.53 25.74-25.74 0-14.22-11.53-25.74-25.74-25.74-14.22 0-25.74 11.52-25.74 25.74 0 14.21 11.52 25.74 25.74 25.74Z" fill="#cecece"/><path d="M365.65 671.55c-7.37 0-13.31-5.94-13.31-13.32v-23.41c0-7.38 5.94-13.32 13.31-13.32h35.43l-.06.21c-5.33 12.15-8.06 25.12-8.06 38.5v11.34h-27.31Z" fill="#ffc930"/><path d="M584.53 671.55v-11.4c0-43.29-29.15-81.32-70.93-92.51a95.777 95.777 0 0 0-24.85-3.28c-43.15 0-81.18 29.08-92.45 70.8 0 .07-.06.13-.2.13l-21.98.07c-.14 0-.21-.07-.21-.2l3.48-72.37c.96-20 14.61-36.94 33.93-42.26l123.3-33.59c.07 0 .14-.07.14-.14l33.8-79.54c6.41-15.08 21.09-24.85 37.55-24.85h77.83c10.85 0 19.66 8.81 19.66 19.67v249.74c0 10.85-8.81 19.66-19.66 19.66l-99.41.07Z" fill="#ffc930"/><path d="M378.21 556.58c-.41 2.04-.61 4.09-.75 6.21l-2.12 44.99" stroke="#505050" stroke-width="4" stroke-linecap="round" stroke-linejoin="round" fill="none"/><path d="M488.75 729.58c38.34 0 69.43-31.09 69.43-69.43 0-38.35-31.09-69.44-69.43-69.44-38.35 0-69.44 31.09-69.44 69.44 0 38.34 31.09 69.43 69.44 69.43Z" fill="#a3883c"/><path d="M488.75 681.79c11.95 0 21.64-9.69 21.64-21.64 0-11.96-9.69-21.65-21.64-21.65-11.96 0-21.65 9.69-21.65 21.65 0 11.95 9.69 21.64 21.65 21.64Z" fill="#ffc930"/><path d="M550.4 490.62v-.34l32.63-76.8c3.96-9.29 12.97-15.3 23.08-15.3h77.83a3.97 3.97 0 0 1 3.96 3.96v88.48H550.4Z" fill="#fbf8f1"/><path d="M583.37 601.23c-10.79-19.32-31.4-32.98-32.91-33.94-.06-.06-.06-.06-.06-.13v-76.6c0-.14.06-.21.2-.21h137.09c.14 0 .21.07.21.21v110.46c0 .14-.07.21-.21.21H583.37Z" fill="#ffc930"/><path d="M658.06 550.02c-4.44 0-7.99-3.55-7.99-7.99v-26.62c0-4.51 3.49-7.99 7.99-7.99h4.78c4.44 0 7.99 3.55 7.99 7.99v26.62c0 4.44-3.55 7.99-7.99 7.99h-4.78Z" fill="#a3883c"/><path d="M457.27 541.56c-3.62 0-6.76-2.39-7.71-5.88-1.16-4.3 1.29-8.73 5.53-9.89l15.77-4.44c.75-.21 1.5-.34 2.18-.34 3.55 0 6.69 2.39 7.72 5.87 1.16 4.3-1.3 8.74-5.53 9.9l-15.77 4.43c-.69.28-1.44.35-2.19.35Z" fill="#fff"/><path d="M561.39 507.69c-6.08 0-10.99-4.91-10.99-10.99v-67.73c0-6.07 4.91-10.99 10.99-10.99h9.35c6.08 0 10.99 4.92 10.99 10.99v67.73c0 6.08-4.91 10.99-10.99 10.99h-9.35Z" fill="#a3883c"/><path d="M600.37 671.41v-11.26c0-37.35-18.71-72.31-49.84-92.99" stroke="#505050" stroke-width="4" stroke-linecap="round" stroke-linejoin="round" fill="none"/><path d="M600.44 671.55c-.14 0-.21-.07-.21-.21.21-2.93 2.05-36.39-10.92-59.67-13.93-28.95-37.21-43.42-38.85-44.44-.06-.07-.06-.07-.06-.14v-2.8c0-.14.13-.2.27-.2 2.18.95 17.95 7.98 33.32 23.35 15.36 15.29 33.86 42.26 34.95 83.9v.14h-18.5v.07Z" fill="#a3883c" stroke="#505050" stroke-width="4" opacity=".2"/><path d="M703.6 401.39v234.66" stroke="#505050" stroke-width="4" stroke-linecap="round" stroke-linejoin="round" fill="none"/><path d="m366.2 635.36 30.04-.07" stroke="#1b1b1b" stroke-width="4" stroke-linecap="round" stroke-linejoin="round" fill="none"/><path d="M1110.03 729.58c38.34 0 69.43-31.09 69.43-69.43 0-38.35-31.09-69.44-69.43-69.44-38.35 0-69.44 31.09-69.44 69.44 0 38.34 31.09 69.43 69.44 69.43Z" fill="#a3883c"/><path d="M1110.03 681.79c11.95 0 21.64-9.69 21.64-21.64 0-11.96-9.69-21.65-21.64-21.65-11.96 0-21.65 9.69-21.65 21.65 0 11.95 9.69 21.64 21.65 21.64Z" fill="#ffc930"/><path d="m358.13 1008.34-.02-138.45 314.96-.02.02 138.47H358.13Z" fill="#9c760c"/><path d="m358.13 1008.34-.02-138.45 125.76-.02.02 138.47H358.13Z" fill="#ffc930"/><path d="M402.84 938.54c-.02-10.04 8.14-18.2 18.17-18.2 10.03 0 18.18 8.16 18.18 18.19v.01h-36.35Z"/><path d="M358.13 938.82h314.94" stroke="#000" stroke-width="4" fill="none"/><path d="M1153.97 959.27c-1.4-17.07-3.31-28.79-7.26-43.05 0-.13-.13-.26-.25-.26-2.42-.76-24.58-7-48.28-6.88-7.26.13-34.38 6.25-38.08 7.01-.25 0-.38.25-.25.51 3.05 7.77 4.71 12.61 6.62 17.7 0 .13.13.26.38.26l20.25.25c7.39 0 10.32 6.88 12.61 14.14l4.84 13.63c0 .13.26.25.39.25l49.03-3.56ZM1035.77 958.76c1.91-12.61 3.32-26.24 4.08-42.16 0-.13 0-.26-.13-.38-2.16-1.28-23.31-12.99-44.07-13.12-20.38 0-40.5 11.33-42.54 12.61-.13 0-.13.13-.13.25-.12 7.9-.89 12.48-1.4 17.32 0 .13 0 .13.13.26l24.2 33.75c.13.13.26.13.38.13 3.7-.76 53.12-8.02 56.8-8.06 2.56-.35 2.68-.47 2.23 2.21ZM1078.57 544.94c.13 0 .13-.13.13-.26v-56.42c0-17.32-9.68-40.5-33.88-54.39-7.52-4.33-7.52-7.89-17.96-7.89-26.37 0-41.14 8.53-46.24 21.27-.76 2.03-1.65 4.96-2.93 9.68-2.16 8.28-4.58 19.87-5.09 25.34 0 .13-.13.26-.26.26-9.29 4.33-9.55 9.42-.5 14.26v.64c-2.3 25.47 5.6 43.69 35.91 39.74.26 0 .39.13.39.38v7.01c0 .12 0 .25.12.25 1.66 1.27 17.83 12.74 34.39 12.61 16.81 0 34.01-11.46 35.92-12.48Z" fill="#cf5934"/><path d="M1026.22 530.16c-9.04 5.1-16.17 6.75-17.83 6.88-.13 0-.25.13-.25.38v11.85c0 .38.38.51.63.25l17.96-18.72c.26-.38-.13-.76-.51-.64Z" fill="#030202" opacity=".2"/><path d="M953.37 883.23c.12-15.67.25-33.37 1.02-54.13 2.67-72.6 20.88-133.74 22.16-138.07 0-.13.13-.25.38-.25 22.29-.39 103.04 0 123.93-.13.13 0 .25.13.38.25 21.78 52.1 12.87 103.04 21.4 152.84 4.71 24.84 17.45 48.4 23.94 71.97 0 .25-.12.51-.38.51-6.75 0-81.51.25-86.23.25-.12 0-.25-.13-.38-.25-6.49-16.94-13.5-36.18-17.96-54.39-.12-.38-.63-.38-.76.13-.51 7.51-.77 15.41-.51 24.2.25 11.72-.13 23.18-.51 30.06 0 .25-.13.38-.38.38-5.86 0-80.5-.51-86.23-.51-.26 0-.38-.13-.38-.38.25-9.68.38-20 .51-32.48Z" fill="#61ccff"/><path d="m1041 860.18 2.16-17.45 10.19-43.82 11.72-40.37s-1.27-7.77-7.52-8.67c-.89-.12-1.78-.12-2.54-.12-4.08 0-7.52 1.53-10.32 4.45-10.57 11.09-10.57 39.87-9.68 60.63 1.27 33.5-1.02 25.73 5.99 45.35Z" fill="#003852" opacity=".2"/><path d="M1064.94 759.55c-7.64 31.72-20.12 60.76-23.69 101.9" stroke="#003852" stroke-width="4" stroke-linecap="round" stroke-linejoin="round" fill="none"/><path d="M909.68 587.86c.13-.13.13-.25.13-.51-16.31-30.57-35.54-66.36-33.88-38.97 0 .51-.64.76-.89.25-5.1-8.4-15.16-21.78-21.66-21.78-1.4 0-2.42.64-3.31 1.66-.13.25-.38.25-.64.13-3.94-2.17-8.4-2.81-9.55 5.09 0 .25-.13.38-.38.38-4.71 1.15-5.35 6.12-3.44 11.85v.38c-7.77 9.17 14.01 54.26 21.4 73.49 0 .13.13.26.38.26 12.86-.39 48.53-29.68 51.84-32.23Z" fill="#cf5934"/><path d="M1130.92 703.26c10.7 0 18.85-4.08 24.33-12.23 22.29-33.12-22.42-101.26-38.98-117.43-19.23-18.73-34.13-21.15-37.19-21.4-.13 0-.26-.13-.26-.38v-7.26c0-.26-.12-.39-.38-.39h-69.92c-.26 0-.38.13-.38.39v7.26c0 .12-.13.38-.26.38-4.2.51-32.22 4.58-48.65 22.92-15.67 17.71-30.57 35.67-33.63 39.36-.13.26-.51.13-.64 0-1.65-3.06-8.53-16.05-15.79-28.27-.13-.13-.38-.26-.51-.13-4.08 2.67-47.13 31.46-50.82 33.88-.13.13-.25.25-.13.38 10.45 23.44 26.11 52.99 42.8 61.14 30.69 15.92 57.44-8.92 65.72-21.78.13-.26.51-.26.64.12 1.4 4.46 8.79 27.9 9.68 30.57 0 .13.13.26.38.26l116.29.51h.12c1.79 1.14 20.13 12.1 37.58 12.1Z" fill="#ff4f32"/><path d="M1078.32 525.32c.25 0 .38-.12.38-.38.12-2.16.12-12.35.12-21.4-4.29-7.22-4.71-12.86-5.47-15.06-6.28-17.57-13.76-30.04-24.46-52.06-7.51-4.33-11.46-10.57-21.9-10.57-30.06.64-43.69 9.17-48.28 27.77v.25c.77 2.67 13.76 5.99 21.66 3.95.76.13 2.67-1.28 2.8-.26 0 14.14 8.79 22.04 10.44 23.44.13.13.38.13.51 0 1.53-1.78 10.83-12.48 23.18-12.48 8.28-.13 16.56 7.77 16.43 16.3.77 8.92-10.31 23.44-12.86 25.86-.13.12-.13.38 0 .51 9.17 12.35 34.9 13.88 37.45 14.13Z" fill="#010005"/><path d="M1153.97 959.65c0-.13-.13-.38-.38-.38l-45.85-.13c-.13 0-.26-.13-.38-.25l-3.7-12.1c-2.29-7.52-9.17-12.49-16.94-12.49l-19.74.39c-.26 0-.38.25-.26.63 9.94 27.13 6.37 28.92-9.55 45.98-3.18 3.44-5.98 6.12-7.77 9.94-.12.25 0 .51.26.51 5.09.76 49.29 7.64 51.07 7.89h.13l53.75-8.02c.13 0 .25-.13.25-.38.13-2.68 0-20.38-.89-31.59Z" fill="#fff"/><path d="M1154.61 1007.67c.13-1.53.38-7.52.38-15.92 0-.26-.13-.39-.38-.39-6.37 0-99.73-.38-104.95-.38-.13 0-.26.13-.38.26-2.17 3.95-2.81 9.04-2.68 16.17 0 .26.13.39.38.39 8.15 0 100.88.25 107.25.25.25 0 .38-.13.38-.38Z" fill="#838383"/><path d="M1029.53 990.86c2.3-9.18 4.59-20.13 6.24-31.46 0-.26-.12-.39-.38-.39h-51.07c-.26 0-.38-.25-.38-.38l1.52-9.93c1.15-7.39-5.09-14.65-12.61-14.4 0 0-18.21-.63-20.88-.76-.26 0-.39.13-.39.38-1.52 19.62-9.93 28.66-22.03 38.98-13.5 8.78-14.52 16.3-14.52 17.83 0 .13.13.38.25.38 2.93.51 24.2 7.01 56.17 7.26 17.2.13 54.77-6.62 57.96-7.26 0 0 .12-.13.12-.25Z" fill="#fff"/><path d="M1024.44 1007.92c1.14-2.42 3.69-12.1 4.97-16.3.12-.26-.13-.51-.39-.51H915.16c-.13 0-.26.13-.39.25-1.91 4.46-2.67 9.81-3.18 16.18 0 .26.13.38.38.38 8.79 0 106.61.13 112.09.13.12 0 .25-.13.38-.13Z" fill="#838383"/><path d="m1006.22 678.68-35.79-24.59c-.12-.12-.38-.12-.51.13l-3.18 4.84c0 .13-.13.26 0 .26l9.68 30.82c0 .13.13.13.13.13l29.93 22.29c.25.12.64 0 .64-.26l-.64-33.5c-.13.13-.13 0-.26-.12ZM1035.14 632.06l-34.01-78.46c-.13-.13-.25-.26-.38-.26-5.22.9-17.32 3.83-28.91 11.21-.13.13-.26.26-.13.39 2.16 4.96 32.09 74.38 34.39 79.6.12.13.25.26.51.13l28.4-12.36c.13.26.13 0 .13-.25ZM1115.38 572.7c-8.79-8.4-19.49-15.66-27.38-18.21-.13 0-.39 0-.39.26-2.16 5.35-28.65 71.32-30.82 76.67-.13.13 0 .38.25.51 3.32 1.4 30.19 12.61 28.92 12.1.51-1.4 27.76-66.49 29.55-70.82 0-.25-.13-.38-.13-.51Z" fill="#fff"/><path d="M987.63 502.52c-2.55 2.55-5.35 2.93-8.15 2.3" stroke="#030202" stroke-width="4" stroke-linecap="round" stroke-linejoin="round" fill="none"/><path d="M984.44 486.09c-1.75 0-3.18-1.42-3.18-3.18 0-1.76 1.43-3.18 3.18-3.18 1.76 0 3.19 1.42 3.19 3.18 0 1.76-1.43 3.18-3.19 3.18Z" fill="#231f20"/><path d="M1078.95 488.13c0-17.32-.13-46.61-24.2-60.5-7.51-4.33-17.32-6.75-27.76-6.75-44.71 0-48.91 32.48-49.3 35.66 0 .13.13.26.26.39l41.14 19.1h.38c4.71-4.07 16.18-9.55 24.33-5.73 10.32 4.84 10.19 14.9 9.17 20.76 0 .13 0 .26.25.38l25.22 11.85c.26.13.51 0 .51-.38v-14.78Z" fill="#61ccff"/><path d="m925.22 614.86 9.04-10.95" stroke="#000" stroke-width="4" stroke-linecap="round" stroke-linejoin="round" fill="none"/><path d="M1099.71 734.08c13.89.26 24.33-9.04 21.4-22.8l-14.77-77.95c-2.17-12.1-13.25-18.59-25.35-18.59l-38.72-2.93h-25.98c-12.23 0-21.66 9.29-21.91 21.52l-1.15 77.95c-.12 6.62 2.68 13.38 7.52 18.34 4.97 5.1 11.72 7.9 18.47 7.9h27l44.96-2.93 8.53-.51Z" fill="#838383"/><path d="M1126.72 737.65c13.88.25 24.32-12.61 21.39-26.37l-14.77-77.95c-2.04-12.1-13.12-21.52-25.35-21.52h-64.7c-12.23 0-21.65 9.29-21.91 21.52l-1.14 77.95c-.13 6.62 2.67 13.38 7.51 18.34 4.97 5.1 11.72 7.9 18.47 7.9l80.5.13Z" fill="#fff"/><path d="m945.72 955.57 12.23 7.39M938.85 964.24l9.04 10.31M1072.46 961.94l12.48 4.59M1067.62 970.99l9.17 6.87" stroke="#838383" stroke-width="4" stroke-linecap="round" stroke-linejoin="round" fill="none"/><path d="m966.61 659.06 7.01-10.83" stroke="#000" stroke-width="4" stroke-linecap="round" stroke-linejoin="round" fill="none"/><path d="M1139.45 666.58h-118.2" stroke="#838383" stroke-width="4" stroke-linecap="round" stroke-linejoin="round" fill="none"/><path d="M1080.23 441.26c14.77 0 26.87-12.1 26.87-26.87 0-14.78-12.1-26.88-26.87-26.88-14.78 0-26.88 12.1-26.88 26.88 0 14.77 12.1 26.87 26.88 26.87Z" fill="#61ccff"/><path d="M849.69 528.76s14.77 21.4 22.8 34.65M840.01 534.24l21.27 36.55M836.32 546.47l15.28 30.69M1034.76 489.28l-6.63 7.26M1008.14 537.17c7.26-.77 20.37-8.28 20.37-8.28" stroke="#030202" stroke-width="4" stroke-linecap="round" stroke-linejoin="round" fill="none"/><path d="M850.17 764.64H672.98v243.41h177.19V764.64Z" fill="#ff4f32"/><path d="M754.84 764.64H577.65v243.41h177.19V764.64Z" fill="#ff4f32"/><path d="M850.17 764.64H805.1L672.98 951.99v56.06h47.46l129.73-183.99v-59.42Z" fill="#231f20"/><path d="M672.98 764.64h-95.33v243.41h95.33V764.64Z" opacity=".2"/><path d="M672.98 1008.05V764.64" stroke="#000" stroke-width="4" stroke-linecap="round" stroke-linejoin="round" fill="none"/></svg>
