<svg xmlns="http://www.w3.org/2000/svg" viewBox="0 0 1600 1200"><path d="M1172.33 750.84c27.92-112.34 24.83-209.8-6.88-217.68-31.71-7.88-80.05 76.81-107.95 189.15-27.91 112.34-24.83 209.79 6.88 217.67 31.71 7.88 80.04-76.8 107.95-189.14Z" stroke="#231f20" stroke-width="4" stroke-linecap="round" stroke-linejoin="round" fill="none"/><path d="M1264.93 881.81c22.67-23.52-26.49-107.71-109.83-188.04-83.33-80.35-169.27-126.4-191.94-102.88-22.68 23.53 26.5 107.71 109.83 188.06 83.33 80.33 169.26 126.39 191.94 102.86Z" stroke="#231f20" stroke-width="4" stroke-linecap="round" stroke-linejoin="round" fill="none"/><path d="M1131.26 793.35c111.23-32.01 194.08-83.4 185.05-114.81-9.02-31.4-106.53-30.91-217.78 1.1-111.23 32-194.08 83.41-185.05 114.8 9.02 31.41 106.53 30.91 217.78-1.09Z" stroke="#231f20" stroke-width="4" stroke-linecap="round" stroke-linejoin="round" fill="none"/><path d="M1114.91 769.46c18.18 0 32.94-14.75 32.94-32.95 0-18.19-14.76-32.94-32.94-32.94-18.2 0-32.95 14.75-32.95 32.94 0 18.2 14.75 32.95 32.95 32.95Z" fill="#ff9edd"/><path d="M977.8 678.61c9.43 0 17.1-7.65 17.1-17.1 0-9.45-7.67-17.11-17.1-17.11-9.45 0-17.11 7.66-17.11 17.11s7.66 17.1 17.11 17.1Zm297.49 70.8c9.44 0 17.11-7.65 17.11-17.1 0-9.45-7.67-17.11-17.11-17.11-9.45 0-17.1 7.66-17.1 17.11s7.65 17.1 17.1 17.1Zm-236.93 148.75c9.44 0 17.11-7.66 17.11-17.11 0-9.44-7.67-17.1-17.11-17.1-9.45 0-17.1 7.66-17.1 17.1 0 9.45 7.65 17.11 17.1 17.11Z" fill="#fff"/><path d="M377.35 251.94h330.17c26.16 0 47.35 26 47.35 58.09v403.3c0 32.09-21.19 58.09-47.35 58.09H377.35c-26.16 0-47.35-26-47.35-58.09V309.9c0-31.96 21.19-57.96 47.35-57.96Z" opacity=".2"/><path d="M398.54 225.93h330.18c26.15 0 47.35 26.01 47.35 58.09v403.3c0 32.09-21.2 58.1-47.35 58.1H398.54c-26.15 0-47.35-26.01-47.35-58.1V283.9c0-31.96 21.2-57.97 47.35-57.97Z" fill="#ff9edd"/><path d="M561.43 669.12c76.25 0 138.06-61.81 138.06-138.06 0-76.26-61.81-138.07-138.06-138.07-76.26 0-138.07 61.81-138.07 138.07 0 76.25 61.81 138.06 138.07 138.06Z" fill="#404040" opacity=".2"/><path d="M561.43 649.9c82.89 0 150.09-67.19 150.09-150.09 0-82.89-67.2-150.09-150.09-150.09-82.9 0-150.1 67.2-150.1 150.09 0 82.9 67.2 150.09 150.1 150.09Z" fill="#f3ebe9"/><path d="M623.77 544.14c-5.94 0-11.87-.41-17.75-1.22-22.25-3.06-39.2-18.76-43.19-40-3.55-18.93 4.62-36.46 21.31-45.74 5.5-3 11.23-5.59 17.12-7.73 9.62-3.7 16.57-6.38 26.23-18.87 1.85-2.39 3.59-4.68 5.23-6.86 11.33-14.96 18.81-24.85 35.59-29.31a149.488 149.488 0 0 1 43.21 105.4c0 2.28-.09 4.61-.19 7.2-8.99 12.12-42.22 37.13-87.56 37.13Z" fill="#ffc930"/><path d="M555.92 387.19c-4.25-.01-8.46-.87-12.38-2.54a32.075 32.075 0 0 1-10.41-7.16 31.899 31.899 0 0 1-6.81-10.65c-1.53-3.97-2.26-8.2-2.13-12.46 12.19-3.08 24.71-4.65 37.28-4.65 8.72 0 17.42.76 26 2.26.49 4.18.13 8.42-1.05 12.47-1.19 4.04-3.17 7.8-5.85 11.06a31.8 31.8 0 0 1-11 8.62 31.75 31.75 0 0 1-13.65 3.05Z" fill="#fff"/><path d="M561.61 649.97c-23-.04-45.7-5.31-66.38-15.41a47.708 47.708 0 0 1 .09-21.2c1.63-6.98 4.8-13.49 9.28-19.08 3.91-4.84 8.73-8.86 14.19-11.83a47.396 47.396 0 0 1 17.65-5.49 47.34 47.34 0 0 1 18.41 1.69 47.34 47.34 0 0 1 16.35 8.62 47.818 47.818 0 0 1 16.77 28.65 47.75 47.75 0 0 1-5.97 32.65c-6.76.93-13.57 1.4-20.38 1.4h-.01Z" fill="#ffc930"/><path d="M614.2 515.34c-4.91 0-9.62-1.96-13.09-5.43a18.487 18.487 0 0 1-5.43-13.1c0-4.91 1.95-9.62 5.43-13.09 3.47-3.48 8.18-5.43 13.09-5.43 4.92 0 9.63 1.95 13.1 5.43 3.47 3.47 5.43 8.18 5.43 13.09 0 4.92-1.96 9.63-5.43 13.1a18.53 18.53 0 0 1-13.1 5.43Zm-34.11 30.37c-1.81 0-3.6-.41-5.23-1.19-2.49-1.19-4.5-3.19-5.69-5.68-1.2-2.48-1.52-5.3-.9-7.99.62-2.69 2.14-5.09 4.3-6.8 2.16-1.71 4.84-2.64 7.6-2.62 1.81-.01 3.59.4 5.22 1.18 2.5 1.18 4.52 3.18 5.73 5.67 1.2 2.49 1.52 5.31.9 8-.61 2.7-2.13 5.1-4.3 6.81a12.132 12.132 0 0 1-7.63 2.62Zm112.89-55.43a39.2 39.2 0 0 1-26.09-9.88 39.201 39.201 0 0 1-12.9-24.73 39.164 39.164 0 0 1 6.81-27.05 39.224 39.224 0 0 1 23.08-15.67c16.21 21 25.63 46.44 27.01 72.93a38.656 38.656 0 0 1-17.91 4.4Z" fill="#fff"/><path d="M608.27 603.93c-2.45-.02-4.83-.75-6.87-2.1a12.659 12.659 0 0 1-4.62-5.49 12.72 12.72 0 0 1-.88-7.13c.4-2.41 1.49-4.65 3.14-6.46 1.65-1.8 3.78-3.09 6.15-3.7 2.36-.62 4.85-.53 7.17.24 2.32.77 4.37 2.19 5.89 4.1a12.62 12.62 0 0 1 2.71 6.65c.16 1.65 0 3.31-.48 4.88-.48 1.58-1.27 3.05-2.32 4.32a12.65 12.65 0 0 1-9.89 4.69Z" fill="#ffc930"/><path d="M539.27 416.96c-2.24 0-4.41-.76-6.17-2.15a9.754 9.754 0 0 1-3.23-4.92 9.76 9.76 0 0 1 .2-5.88 9.77 9.77 0 0 1 3.54-4.69 9.714 9.714 0 0 1 5.6-1.79c2.44 0 4.78.92 6.57 2.56 1.8 1.64 2.92 3.9 3.14 6.32.13 1.25 0 2.5-.37 3.7-.37 1.2-.97 2.31-1.78 3.28a9.583 9.583 0 0 1-3.34 2.65c-1.3.62-2.72.93-4.16.92Zm-54.71 170.4c-2.39.01-4.74-.66-6.77-1.93a12.64 12.64 0 0 1-4.7-5.26 12.702 12.702 0 0 1-1.15-6.95c.28-2.38 1.23-4.63 2.74-6.49 1.19-1.47 2.69-2.65 4.39-3.46 1.71-.81 3.58-1.23 5.46-1.22 2.9 0 5.72.99 7.99 2.79 1.32 1.05 2.41 2.36 3.21 3.84a12.73 12.73 0 0 1 1.48 4.79c.17 1.65.01 3.31-.47 4.89a12.52 12.52 0 0 1-2.32 4.31 12.615 12.615 0 0 1-9.86 4.69Zm19.89-164.05c-3.39 0-6.67-1.17-9.32-3.29a14.906 14.906 0 0 1-4.88-7.51c-.82-2.95-.71-6.08.32-8.96 1.02-2.88 2.91-5.37 5.41-7.14a14.8 14.8 0 0 1 8.53-2.73c1.95 0 3.88.38 5.67 1.13 1.8.74 3.44 1.84 4.81 3.22 1.38 1.38 2.47 3.01 3.21 4.81.74 1.8 1.12 3.73 1.12 5.68a14.77 14.77 0 0 1-4.37 10.48 14.772 14.772 0 0 1-4.82 3.2c-1.8.74-3.73 1.12-5.68 1.11Zm150.41 193.92a22.553 22.553 0 0 1-7.28-14.93c-.44-5.72 1.32-11.4 4.91-15.87a22.266 22.266 0 0 1 15.06-8.16c2.93-.3 5.88-.02 8.7.83 2.81.85 5.43 2.24 7.71 4.1.5.39.97.8 1.42 1.24a148.319 148.319 0 0 1-22.06 25.6c-3.17 2.84-5.92 5.19-8.43 7.19l-.02.02-.01-.02Z" fill="#fff"/><path d="M504.21 525.18c22.43-9.29 33.08-35 23.79-57.43s-35.01-33.08-57.43-23.79c-22.43 9.29-33.09 35-23.79 57.43 9.29 22.43 35 33.08 57.43 23.79Z" fill="#ffc930"/><path d="M448.48 471.34c-2.13 0-4.2-.63-5.96-1.81a10.671 10.671 0 0 1-3.95-4.81c-.82-1.96-1.03-4.12-.61-6.2.41-2.08 1.43-3.99 2.93-5.49 1.5-1.5 3.41-2.52 5.49-2.94 2.08-.41 4.24-.2 6.2.62 1.96.81 3.63 2.18 4.81 3.95 1.18 1.76 1.81 3.83 1.81 5.95 0 2.85-1.13 5.57-3.14 7.59a10.744 10.744 0 0 1-7.58 3.14Z" fill="#fff"/><path d="m736.26 283.02-21.71-18.96a6.786 6.786 0 0 0-8.87-.1l-22.43 19.06c-3.26 2.75-5.2 6.93-5.2 11.21v31.1c0 3.77 3.06 6.83 6.83 6.83h15.09v-17.84c0-5.3 4.38-9.69 9.68-9.69s9.69 4.39 9.69 9.69v17.84h15.09c3.77 0 6.83-3.06 6.83-6.83v-31.2c0-4.28-1.84-8.36-5-11.11Z" fill="#f3ebe9"/><path d="m918.32 426.23.56-45.41c0-.75 0-1.4.09-2.15.1-.74.1-1.58.1-2.52.46-16.87 1.21-45.03-17.63-57.62-8.11-5.41-18.36-8.2-29.83-8.2-4.57 0-9.14.46-13.62 1.21-14.45 2.05-25.64 10.35-31.33 23.12-2.79 7.18-3.35 18.09-3.73 26.86-.18 1.39-.18 2.79-.18 4.28-.84.19-4.76 1.31-6.81 3.27-.74.65-1.3 1.49-1.58 2.52-.28 3.63 4.56 8.57 5.68 9.41-2.7 17.53-.65 27.79 6.72 34.22 4.19 3.73 11.47 5.97 19.2 5.97 3.83 0 7.65-.47 11.38-1.4l-.19 6.62 61.17-.18Z" fill="#e59763"/><path d="M870.58 414.57s-5.69 3.08-13.24 5.22l-.19 6.62 2.71 4.76 10.72-16.6Z" fill="#030202" opacity=".2"/><path d="M906.76 1033.88c1.12-16.97 1.02-34.5-.37-51.37l-84.48-.66c.46 8.21 1.96 17.91 1.77 26.3 0 0 29.09.46 29.46.56 3.17.37 6.07 1.96 8.02 4.38 1.96 2.52 2.89 5.59 2.52 8.77l-1.4 11.93 44.48.09Zm131.19.28v-.37c-.19-16.97-1.12-34.13-4.66-50.72v-.1l-.28-.28-89.61.28c2.33 8.3 5.5 17.07 7.56 25.18l29.27.37h.28c.38 0 .66.09 1.03.19 3.17.37 6.06 1.96 8.02 4.38 1.96 2.52 2.89 5.59 2.52 8.77l-1.31 12.58 47.18-.28ZM731.09 525.71c-11.47-4.1-23.96-8.11-38.14-12.21-21.53-6.06-35.61-7.37-43.63-7.37h-.93c-2.52 0-5.04.19-7.46.56-1.4.28-2.52 1.31-2.99 2.61-.46 1.68.65 3.36 1.31 4.29-3.73.28-24.62 1.87-29 8.95-.93 1.4-1.12 3.17-.56 4.76-2.7 2.7-2.98 5.03-2.8 6.53.28 2.14 1.87 4.01 4.76 5.5-.38 2.24 0 4.47 1.3 6.43a9.268 9.268 0 0 0 6.81 3.36c3.08.28 7.09.46 11.66.46 4.94 0 10.07-.09 13.42-.28.38 0 .56.47.19.66-6.25 3.26-18.28 10.07-19.96 15.01-.37.75-.27 1.58.19 2.24.56 1.12 2.15 1.77 4.2 1.77 7.08 0 20.98-5.78 25.55-7.65.55-.28 1.02-.46 1.21-.46l.28.09c5.87 2.33 17.15 6.34 26.48 6.34h.28c1.77 0 3.63-.19 5.41-.56 6.34 5.5 12.58 10.16 19.58 14.73l22.84-55.76Z" fill="#e59763"/><path d="M952.63 631.36s.1 0 .19-.1c5.5-2.23 33.38-14.91 40.28-45.22 5.69-24.52-3.08-85.78-29-122.14-12.86-18-28.25-27.98-45.78-29.84.19-3.64.19-11.28.19-11.38v-.18h-61.36l-.65 11.56c-28.72 2.89-53.52 22.47-71.98 56.78-6.34 11.84-20.14 35.43-24.62 43.17-.65 1.12-1.12 1.96-1.4 2.33-.37-.09-.93-.37-1.67-.74-3.92-1.68-13.24-5.5-26.11-10.07l-.56-.19-23.5 55.2 3.82 2.89c12.41 8.21 37.58 21.82 66.3 21.82h.47c.93 0 1.77-.09 2.7-.19 12.31-.46 23.78-6.24 34.13-17.15 5.22-5.5 9.97-12.12 13.7-19.21l4.57 38.32 109 1.03 10.91 23.21.37.1Z" fill="#61ccff"/><path d="m862 607.21-20.51-66.48-13.71 27.97 4.57 38.32 29.65.19Zm90.63 24.15c8.95-3.73 16.97-8.95 23.78-15.76l.19-.19-.19-.09c-.09-.09-9.23-5.78-13.8-13.05-4.38-7-5.5-16.04-6.43-23.97-1.12-9.32-2.61-17.34-8.12-20.88l-6.9 50.16 11.1 23.68.37.1Z" fill="#519cbf" opacity=".2"/><path d="M1036.55 1063.72c1.03-9.98 1.59-19.95 1.49-29.84v-.37h-46.62c.19 0 1.21-10.35 1.31-11.1.93-7.45-4.57-14.54-12.4-14.54l-29.37.09c2.05 11.75.93 20.05-3.27 24.9-5.13 5.78-10.81 11.09-16.87 15.85l-.56.47c-5.79 4.84-10.45 8.57-13.34 14.26l119.63.28Z" fill="#61ccff"/><path d="M1034.59 1078.27s2.05-6.9 2.05-15.11H917.02s-3.64 5.69-3.64 11.56c0 1.59.47 3.73.47 3.73l120.74-.18Z" fill="#081921"/><path d="m832.26 606.65 50.35-.09 59.58-.1.09.1c32.17 43.91 30.87 82.98 28.91 142.19v1.4c-.56 17.71-1.21 37.76-1.03 60.14.19 21.17 9.89 39.35 22.19 62.28l.75 1.4c11.75 22.19 26.29 49.79 35.71 87.93 1.77 6.9 3.45 14.27 4.66 21.35l-89.97.1s-13.24-33.85-21.54-52.69l-1.21-2.89c-13.8-31.61-29.38-67.41-37.21-99.02-.93 5.5-1.58 10.91-1.68 16.04-.56 21.91 2.89 34.22 7.74 51.28l.38 1.31a417.06 417.06 0 0 1 14.07 64.24c1.03 6.34 2.52 21.73 2.43 21.73l-84.66-.1c-1.87-15.57-5.41-34.22-8.68-50.25l-.56-3.17c-5.03-25.74-10.63-55.02-13.05-83.92-10.82-131.1 32.26-238.33 32.73-239.26Z" fill="#ffc930"/><path d="M899.02 874.91c2.7-33.48 8.67-60.15 13.52-81.5 7.37-32.54 15.29-50.07 3.64-69.65l-19.96 60.42-13.14 42.52c3.26 13.89 8.2 29.46 15.47 48.21h.47Z" fill="#211800" opacity=".2"/><path d="M916.36 721.62c-10.16 39.34-26.76 74.4-32.63 105.08" stroke="#211800" stroke-width="4" stroke-linecap="round" stroke-linejoin="round" fill="none"/><path d="m903.22 1063.91.09-.28c1.68-9.79 2.98-19.86 3.64-29.84v-.37h-44.29s1.49-12.59 1.49-13.06c0-6.9-5.69-12.58-12.59-12.58h-28.07v.37c-.46 11.37-2.98 19.39-7.64 24.71-5.6 6.15-11.94 11.75-18.74 16.59-6.25 4.67-11.19 8.58-14.27 13.9l120.38.56Z" fill="#61ccff"/><path d="m900.42 1078.27 2.98-15.48-120.47.37s-4.01 4.85-3.73 11.19c0 1.03.38 4.1.38 4.1l120.84-.18Z" fill="#081921"/><path d="M881.12 694.67c6.15 0 12.12-2.52 16.41-6.99 13.24-13.24 13.42-42.15 13.42-43.36v-.37h-52.96v.37c-.37 1.96-4.47 30.12 6.72 43.17 3.73 4.75 9.13 7.18 16.03 7.18h.38Zm90.63-.28v-.37c-.93-19.49-3.82-35.25-8.95-49.61l-.19-.37h-25.17v.37c0 1.21.09 30.03 13.42 43.36 4.29 4.29 10.17 6.81 16.23 6.81l4.66-.19Z" fill="#211800"/><path d="m947.79 1032.86 11.65 6.62m-17.34 0 5.69 7.74m-132.5-13.34 11.56 6.62m-18-.46 5.69 7.74" stroke="#081921" stroke-width="4" stroke-linecap="round" stroke-linejoin="round" fill="none"/><path d="m827.88 568.23 9.51-18.74m103.77 55.67 8.58-59.4m-191.24-9.79 4.67 10.26" stroke="#519cbf" stroke-width="4" stroke-linecap="round" stroke-linejoin="round" fill="none"/><path d="M834.22 363.75c-1.5 0-2.71 1.22-2.71 2.71s1.21 2.7 2.71 2.7c1.49 0 2.7-1.21 2.7-2.7a2.71 2.71 0 0 0-2.7-2.71Z" fill="#010005"/><path d="M840.18 382.77c-1.58 2.62-4.29 4.29-7.36 4.39m37.11 27.6c-3.64 2.05-7.55 3.63-11.56 4.75m-204.95 93.71c-3.92 0-7.74 0-13.43.19m-29.74 13.52s14.36-5.32 54.64-2.24m-52.68 14.17c6.62-1.49 22.19-3.91 50.72-1.77" stroke="#030202" stroke-width="4" stroke-linecap="round" stroke-linejoin="round" fill="none"/><path d="M917.67 433.87h-10.45" stroke="#519cbf" stroke-width="4" stroke-linecap="round" stroke-linejoin="round" fill="none"/><path d="m991.52 1033.04-6.16 30.49m-122.7-30.11-7.18 30.11" stroke="#081921" stroke-width="4" stroke-linecap="round" stroke-linejoin="round" fill="none"/><path d="m883.08 379.88-6.72 6.16" stroke="#030202" stroke-width="4" stroke-linecap="round" stroke-linejoin="round" fill="none"/><path d="M912.73 411.12c3.45 0 5.78-.37 5.78-.37 2.61-.38 5.03-1.4 7.08-3.08 3.08-2.42 5.04-5.97 5.5-9.88.47-3.83-.55-7.65.63-10.02 1.52-2.2 5.53-6.3 6.83-11.43.94-3.92.38-7.92-1.67-11.37-1.96-3.27-9.78-6.26-8.68-6.72 5.51-2.33 9.24-7.74 9.24-13.8 0-8.2-6.72-14.92-14.92-14.92-.66-.12 1.86-5.12 1.86-7.83 0-9.6-7.83-17.34-17.43-17.34h-.1c-3.82 0-7.55 1.3-10.63 3.63-.92.89-3.07-8.2-6.8-10.53-2.43-1.49-5.13-2.33-7.93-2.33-5.13 0-9.7 2.51-12.49 6.71-.92 1.84-5.69-5.41-9.61-6.15-.84-.19-1.77-.28-2.7-.28-7.18 0-13.24 5.03-14.64 12.03-.15 2.61-4.29-1.22-6.43-1.22-9.61 0-17.44 7.84-17.44 17.44 0 9.32 7.55 17.06 16.97 16.12 3-.01-1.27 8.12 1.33 13.72 1.65 3.63 6.97 6.99 12.66 6.99 2.14 0 4.19-.47 4.04-.14 1.64 5.08 5.11 14 9.01 14.21h.41l2.4-1.69c1.86-1.33 11.36-9.77 21.34-9.77 4.94 0 8.76 2.33 11.47 6.81 8.39 13.8-9.49 29.74-10.87 31.03l-.36.3-1.06.96c-2.66 2.65 20.21 8.92 27.21 8.92Z" fill="#010005"/></svg>
