<svg viewBox="0 0 272 55" fill="none" xmlns="http://www.w3.org/2000/svg"><path d="M.2 6.2c0 3.1 2.1 5.2 5.2 5.2h13.9c10.1 0 11 2.8 11 10.9V50c0 2.9 2.3 5 5.2 5 2.9 0 5.2-2.1 5.2-5V20.8C40.7 6 34.9 1 20.8 1H5.4C2.3 1 .2 3.1.2 6.2Zm5.2 10.2c-2.9 0-5.2 2.1-5.2 5V50c0 2.9 2.3 5 5.2 5 2.9 0 5.2-2.1 5.2-5V21.4c0-2.9-2.3-5-5.2-5Zm90.236 10.9v-7.6c0-13.3-9.2-19.7-20.3-19.7-11.1 0-20.3 6.4-20.3 19.7v.8c0 2.9 2.2 5 5.2 5s5.2-2.1 5.2-5v-.8c0-7.8 4.9-9.9 9.9-9.9 4.9 0 9.9 2.1 9.9 9.9v2.5h-10.6c-2.9 0-5 1.6-5 4.8 0 3.2 2.1 4.8 5 4.8h16.7c3.1 0 4.3-1.3 4.3-4.5ZM75.336 55h14c2.9 0 5-2.2 5-5.1 0-2.9-2.1-5.1-5-5.1h-14c-5 0-9.9-1.8-9.9-8.5v-.8c0-2.9-2.2-5-5.2-5s-5.2 2.1-5.2 5v.8c0 12.6 9.2 18.7 20.3 18.7Zm72.534-4.3c.9 3 2.5 4.3 5.1 4.3 2.9 0 5.1-1.8 5.1-4.8 0-.7-.1-1.4-.3-2.2l-13-42.7c-.9-3-2.5-4.3-5.1-4.3-2.9 0-5.1 1.8-5.1 4.8 0 .7.1 1.4.3 2.2l13 42.7Zm-18.6-.5 5.5-21c.2-.7.3-1.5.3-2.1 0-3.2-2-4.8-4.5-4.8-2.2 0-4.2 1.2-4.9 4l-2.4 9.7-8.6-30.7c-.8-3-2.5-4.3-5.1-4.3-2.9 0-5.1 1.8-5.1 4.8 0 .7.1 1.4.3 2.2l12.8 42.2c.8 2.5 2.1 4.8 5.9 4.8 3.8 0 5.2-2.3 5.8-4.8Zm27.6-26.3c-.2.8-.4 1.6-.4 2.4 0 2.9 1.9 4.9 5 4.9 2.6 0 4.3-1.4 5.2-4.3l5.5-18.6c.2-.8.4-1.6.4-2.4 0-2.9-1.9-4.9-5-4.9-2.6 0-4.3 1.4-5.2 4.3l-5.5 18.6Zm65.524 3.4v-7.6c0-13.3-9.2-19.7-20.3-19.7-11.1 0-20.3 6.4-20.3 19.7v.8c0 2.9 2.2 5 5.2 5s5.2-2.1 5.2-5v-.8c0-7.8 4.9-9.9 9.9-9.9 4.9 0 9.9 2.1 9.9 9.9v2.5h-10.6c-2.9 0-5 1.6-5 4.8 0 3.2 2.1 4.8 5 4.8h16.7c3.1 0 4.3-1.3 4.3-4.5Zm-20.3 27.7h14c2.9 0 5-2.2 5-5.1 0-2.9-2.1-5.1-5-5.1h-14c-5 0-9.9-1.8-9.9-8.5v-.8c0-2.9-2.2-5-5.2-5s-5.2 2.1-5.2 5v.8c0 12.6 9.2 18.7 20.3 18.7Zm69.534-48.8c0-3.1-2.1-5.2-5.2-5.2h-7.2c-11 0-16.9 5.2-16.9 16.8v2.7c0 2.9 2.3 5 5.2 5 2.9 0 5.2-2.1 5.2-5v-1.2c0-4.9 1.7-7.9 8-7.9h5.7c3.1 0 5.2-2.1 5.2-5.2Zm-24.1 24.3c-2.9 0-5.2 2.1-5.2 5v9.1h-7.7c-2.8 0-4.7 2.1-4.7 5.2s1.9 5.2 4.7 5.2h32.3c2.8 0 4.7-2.1 4.7-5.2s-1.9-5.2-4.7-5.2h-14.2v-9.1c0-2.9-2.3-5-5.2-5Z" fill="url(#a)"/><defs><linearGradient id="a" x1="-8" y1="-26.5" x2="324.5" y2="55" gradientUnits="userSpaceOnUse"><stop stop-color="#0EA5E9"/><stop offset="1" stop-color="#5EEAD4" stop-opacity=".54"/></linearGradient></defs></svg>
