<svg viewBox="0 0 960 295" fill="none" xmlns="http://www.w3.org/2000/svg"><path d="M146.025 89.665c0 1.984.337 3.406 1.011 4.267.711.824 2.059 1.236 4.043 1.236h1.853V116h-37.734V80.119c0-1.46-.15-2.62-.449-3.482-.3-.898-.712-1.572-1.236-2.021a3.48 3.48 0 0 0-1.741-.955 8.08 8.08 0 0 0-1.853-.225c-2.47 0-4.174.712-5.109 2.134-.899 1.423-1.348 3.444-1.348 6.065v8.03c0 1.984.337 3.406 1.011 4.267.711.824 2.059 1.236 4.043 1.236h1.853V116H64.605V95.168h3.313c1.534 0 2.695-.487 3.48-1.46.825-1.011 1.236-2.21 1.236-3.594v-10.67c0-1.759-.524-2.938-1.572-3.537-1.01-.636-2.171-.954-3.481-.954h-2.977V54.12H97.96l-1.18 15.442h.955c.824-5.765 3.145-10.201 6.963-13.308 3.856-3.107 9.434-4.66 16.734-4.66 2.732 0 5.278.374 7.636 1.122 2.396.712 4.511 1.816 6.346 3.313 1.871 1.498 3.331 3.388 4.379 5.672 1.086 2.246 1.704 4.866 1.854 7.861h.786c.337-2.845 1.16-5.39 2.47-7.637 1.348-2.283 3.033-4.174 5.054-5.671a23.85 23.85 0 0 1 6.738-3.425 24.344 24.344 0 0 1 7.749-1.236c4.979 0 9.041.73 12.185 2.19 3.145 1.46 5.597 3.313 7.356 5.56 1.76 2.208 2.958 4.622 3.594 7.243.674 2.583 1.011 5.016 1.011 7.3v15.779c0 1.984.337 3.406 1.011 4.267.711.824 2.059 1.236 4.043 1.236h2.976V116h-38.858V80.119c0-1.46-.168-2.62-.505-3.482-.3-.898-.693-1.572-1.179-2.021a3.484 3.484 0 0 0-1.741-.955 8.08 8.08 0 0 0-1.853-.225c-2.471 0-4.174.712-5.11 2.134-.898 1.423-1.348 3.444-1.348 6.065v8.03Zm84.06-27.74c-1.909 0-3.556.15-4.941.45-1.348.262-2.508.58-3.481.954-.974.374-1.779.805-2.415 1.292a52.21 52.21 0 0 0-1.685 1.235l.562.562a44.5 44.5 0 0 1 2.302-1.124c.861-.374 1.947-.561 3.257-.561 2.209 0 4.118.73 5.728 2.19 1.609 1.422 2.414 3.706 2.414 6.85 0 2.995-1.235 5.41-3.706 7.244-2.433 1.797-5.709 2.695-9.827 2.695-3.93 0-7.075-1.123-9.433-3.369-2.321-2.283-3.482-5.503-3.482-9.658 0-2.284.637-4.548 1.91-6.794 1.272-2.284 3.238-4.324 5.896-6.121 2.695-1.797 6.101-3.276 10.219-4.436 4.156-1.16 9.153-1.74 14.993-1.74 6.963 0 12.653.654 17.07 1.965 4.418 1.31 7.843 2.994 10.276 5.053 2.471 2.06 4.155 4.399 5.054 7.02.936 2.62 1.404 5.259 1.404 7.917v21.955c0 3.407.112 5.728.337 6.963.224 1.198 1.067 1.797 2.526 1.797 1.161 0 1.966-.543 2.415-1.628.487-1.123.73-3.032.73-5.728V89.89h6.401v7.132c0 3.369-.28 6.363-.842 8.984-.561 2.583-1.628 4.81-3.201 6.682-1.572 1.834-3.706 3.219-6.401 4.155-2.695.974-6.139 1.46-10.332 1.46-3.781 0-6.925-.412-9.434-1.235-2.47-.786-4.436-1.778-5.896-2.976s-2.508-2.433-3.144-3.706c-.599-1.31-.899-2.471-.899-3.482h-.898c-.225 1.535-.88 2.995-1.965 4.38-1.048 1.385-2.527 2.621-4.436 3.706-1.872 1.048-4.137 1.891-6.795 2.527-2.62.674-5.615 1.011-8.984 1.011-3.22 0-6.158-.318-8.816-.955-2.621-.599-4.867-1.553-6.738-2.864-1.835-1.347-3.276-3.069-4.324-5.166-1.011-2.133-1.516-4.66-1.516-7.58 0-3.594 1.011-6.42 3.032-8.48 2.022-2.095 4.567-3.743 7.637-4.94 3.069-1.236 6.401-2.228 9.995-2.977 3.631-.786 6.981-1.722 10.051-2.807 3.07-1.086 5.615-2.49 7.637-4.212 2.021-1.722 3.032-4.155 3.032-7.3 0-2.807-.88-5.053-2.639-6.738-1.76-1.722-4.642-2.583-8.648-2.583Zm11.287 24.314a9.993 9.993 0 0 1-3.088 2.92 149.744 149.744 0 0 0-3.594 2.134 12.611 12.611 0 0 0-2.976 2.47c-.824.936-1.235 2.21-1.235 3.819a5.94 5.94 0 0 0 1.01 3.369c.674.973 1.984 1.46 3.931 1.46 1.759 0 3.182-.674 4.268-2.021 1.123-1.385 1.684-3.313 1.684-5.784v-8.367ZM295.11 54.12c-.637-.3-1.329-.73-2.078-1.291a11.205 11.205 0 0 1-1.965-2.19 16.47 16.47 0 0 1-1.572-3.033c-.412-1.16-.618-2.47-.618-3.93 0-2.62.749-4.886 2.246-6.795 1.497-1.909 3.575-3.481 6.233-4.716 2.695-1.236 5.915-2.134 9.658-2.696 3.781-.561 7.974-.842 12.578-.842 5.353 0 9.846.318 13.477.954 3.668.637 6.626 1.554 8.872 2.752 2.283 1.198 3.893 2.64 4.829 4.324.973 1.684 1.46 3.556 1.46 5.615 0 1.235-.206 2.433-.618 3.594-.374 1.123-1.029 2.152-1.965 3.088-.898.936-2.096 1.685-3.594 2.246-1.497.562-3.313.842-5.447.842-3.893 0-6.775-.917-8.647-2.751-1.834-1.834-2.751-4.1-2.751-6.794 0-1.535.411-2.808 1.235-3.819.861-1.048 1.797-1.76 2.807-2.134l-.673-.449c-2.022 0-3.669.262-4.942.786-1.235.524-2.208 1.16-2.92 1.91a5.355 5.355 0 0 0-1.347 2.47 10.84 10.84 0 0 0-.337 2.64c0 1.235.243 2.47.73 3.705.486 1.198 1.31 2.284 2.47 3.257 1.161.936 2.696 1.722 4.605 2.359 1.909.599 4.286.898 7.131.898h6.233v20.833h-12.69v14.15c0 2.508.617 4.155 1.853 4.941 1.235.75 2.807 1.124 4.717 1.124h3.818V116h-49.583V95.168h2.19c1.984 0 3.444-.618 4.38-1.854.974-1.272 1.46-2.639 1.46-4.099V74.953h-10.332V54.12h9.097Zm133.418 36.555c0 1.797.505 2.995 1.516 3.594 1.048.599 2.227.898 3.538.898h2.976V116h-33.355v-15.386h-.898c-.861 5.728-3.201 10.07-7.019 13.028-3.819 2.957-9.378 4.436-16.678 4.436-5.128 0-9.302-.73-12.522-2.19-3.219-1.46-5.708-3.295-7.468-5.503-1.759-2.246-2.976-4.661-3.65-7.244-.636-2.62-.954-5.072-.954-7.356v-15.33c0-1.983-.356-3.387-1.067-4.21-.674-.862-2.003-1.292-3.987-1.292h-3.369V54.12h39.25v35.432c0 1.46.169 2.64.506 3.538.337.86.767 1.535 1.291 2.021a4.5 4.5 0 0 0 1.853.899c.711.15 1.367.224 1.966.224 2.47 0 4.286-.71 5.446-2.133 1.198-1.423 1.797-3.444 1.797-6.065v-7.58c0-1.984-.355-3.388-1.067-4.212-.674-.86-2.002-1.291-3.987-1.291h-3.313V54.12h39.195v36.555Zm54.187-57.387v55.815c0 2.508.618 4.155 1.853 4.941 1.235.75 2.807 1.124 4.717 1.124h1.516V116h-47.28V95.168h2.189c1.984 0 3.444-.618 4.38-1.854.974-1.272 1.46-2.639 1.46-4.099v-28.75c0-2.17-.692-3.762-2.077-4.773-1.348-1.048-2.92-1.572-4.717-1.572h-1.235V33.288h39.194ZM247.8 247.91c-.997 0-1.84-.345-2.53-1.035-.613-.613-.92-1.418-.92-2.415v-55.545c.153-6.057 1.61-11.423 4.37-16.1 2.837-4.753 6.67-8.51 11.5-11.27s10.235-4.14 16.215-4.14c6.133 0 11.615 1.418 16.445 4.255 4.907 2.76 8.74 6.593 11.5 11.5 2.837 4.83 4.255 10.312 4.255 16.445 0 6.057-1.418 11.538-4.255 16.445-2.76 4.83-6.593 8.663-11.5 11.5-4.83 2.76-10.312 4.14-16.445 4.14-5.52 0-10.503-1.188-14.95-3.565-4.37-2.377-7.782-5.558-10.235-9.545v35.88c0 .997-.307 1.802-.92 2.415-.613.69-1.457 1.035-2.53 1.035Zm28.635-32.66c4.83 0 9.123-1.112 12.88-3.335 3.833-2.3 6.862-5.367 9.085-9.2 2.223-3.91 3.335-8.28 3.335-13.11 0-4.907-1.112-9.277-3.335-13.11-2.223-3.91-5.252-6.977-9.085-9.2-3.757-2.3-8.05-3.45-12.88-3.45-4.753 0-9.047 1.15-12.88 3.45-3.833 2.223-6.862 5.29-9.085 9.2-2.147 3.833-3.22 8.203-3.22 13.11 0 4.83 1.073 9.2 3.22 13.11 2.223 3.833 5.252 6.9 9.085 9.2 3.833 2.223 8.127 3.335 12.88 3.335Zm51.748-32.66c.46-4.907 1.802-9.238 4.025-12.995 2.224-3.833 5.099-6.823 8.625-8.97 3.527-2.147 7.437-3.22 11.73-3.22 2.914 0 5.175.345 6.785 1.035 1.61.69 2.224 1.917 1.84 3.68-.23 1.15-.766 1.84-1.61 2.07-.843.23-1.878.268-3.105.115-1.15-.23-2.453-.345-3.91-.345-3.833 0-7.245.805-10.235 2.415-2.99 1.61-5.328 3.833-7.015 6.67-1.686 2.76-2.53 5.942-2.53 9.545h-4.6Zm1.15 38.41c-.996 0-1.84-.307-2.53-.92-.613-.69-.92-1.533-.92-2.53v-56.005c0-1.073.307-1.917.92-2.53.69-.613 1.534-.92 2.53-.92 1.074 0 1.917.307 2.53.92.614.613.92 1.457.92 2.53v56.005c0 .997-.306 1.84-.92 2.53-.613.613-1.456.92-2.53.92Zm71.121.69c-6.134 0-11.654-1.38-16.56-4.14-4.83-2.837-8.664-6.67-11.5-11.5-2.76-4.907-4.14-10.388-4.14-16.445 0-6.133 1.38-11.615 4.14-16.445 2.836-4.907 6.67-8.74 11.5-11.5 4.906-2.837 10.426-4.255 16.56-4.255 6.133 0 11.615 1.418 16.445 4.255 4.83 2.76 8.625 6.593 11.385 11.5 2.836 4.83 4.255 10.312 4.255 16.445l-2.875 4.6c0 5.213-1.304 9.89-3.91 14.03-2.53 4.14-5.98 7.437-10.35 9.89-4.37 2.377-9.354 3.565-14.95 3.565Zm0-6.44c4.83 0 9.123-1.112 12.88-3.335 3.833-2.3 6.823-5.367 8.97-9.2 2.223-3.91 3.335-8.28 3.335-13.11 0-4.907-1.112-9.277-3.335-13.11-2.147-3.91-5.137-6.977-8.97-9.2-3.757-2.3-8.05-3.45-12.88-3.45-4.754 0-9.047 1.15-12.88 3.45-3.834 2.223-6.862 5.29-9.085 9.2-2.224 3.833-3.335 8.203-3.335 13.11 0 4.83 1.111 9.2 3.335 13.11 2.223 3.833 5.251 6.9 9.085 9.2 3.833 2.223 8.126 3.335 12.88 3.335Zm28.635 5.75c-.997 0-1.84-.307-2.53-.92-.614-.69-.92-1.533-.92-2.53v-21.045l2.185-6.9h4.715v27.945c0 .997-.307 1.84-.92 2.53-.614.613-1.457.92-2.53.92Zm31.131 27.255c-.46 0-.996-.115-1.61-.345-2.07-.843-2.645-2.262-1.725-4.255l38.64-83.72c.92-1.917 2.339-2.492 4.255-1.725 2.07.843 2.645 2.262 1.725 4.255l-38.64 83.72c-.69 1.38-1.571 2.07-2.645 2.07Zm12.19-28.75c-.996.46-1.878.575-2.645.345-.766-.23-1.38-.843-1.84-1.84l-25.185-55.2c-.46-.997-.575-1.878-.345-2.645.23-.767.844-1.38 1.84-1.84.997-.46 1.879-.575 2.645-.345.767.23 1.38.843 1.84 1.84l25.185 55.2c.46.997.575 1.878.345 2.645-.23.767-.843 1.38-1.84 1.84Zm67.526 2.185c-6.133 0-11.653-1.38-16.56-4.14-4.83-2.837-8.663-6.67-11.5-11.5-2.76-4.907-4.14-10.388-4.14-16.445 0-6.133 1.38-11.615 4.14-16.445 2.837-4.907 6.67-8.74 11.5-11.5 4.907-2.837 10.427-4.255 16.56-4.255 6.133 0 11.615 1.418 16.445 4.255 4.83 2.76 8.625 6.593 11.385 11.5 2.837 4.83 4.255 10.312 4.255 16.445 0 6.057-1.418 11.538-4.255 16.445-2.76 4.83-6.555 8.663-11.385 11.5-4.83 2.76-10.312 4.14-16.445 4.14Zm0-6.44c4.83 0 9.123-1.112 12.88-3.335 3.833-2.3 6.823-5.367 8.97-9.2 2.223-3.91 3.335-8.318 3.335-13.225 0-4.83-1.112-9.162-3.335-12.995-2.147-3.91-5.137-6.977-8.97-9.2-3.757-2.3-8.05-3.45-12.88-3.45-4.753 0-9.047 1.15-12.88 3.45-3.833 2.223-6.862 5.29-9.085 9.2-2.223 3.833-3.335 8.203-3.335 13.11 0 4.83 1.112 9.2 3.335 13.11 2.223 3.833 5.252 6.9 9.085 9.2 3.833 2.223 8.127 3.335 12.88 3.335Zm78.052 6.44c-6.287 0-11.845-1.38-16.675-4.14s-8.625-6.555-11.385-11.385-4.14-10.35-4.14-16.56c0-6.287 1.418-11.845 4.255-16.675 2.836-4.83 6.67-8.625 11.5-11.385 4.906-2.76 10.388-4.14 16.445-4.14 6.286 0 11.806 1.38 16.56 4.14 4.83 2.76 8.625 6.555 11.385 11.385s4.14 10.388 4.14 16.675l-4.025 4.6c0 5.367-1.189 10.12-3.565 14.26-2.377 4.14-5.674 7.398-9.89 9.775-4.217 2.3-9.085 3.45-14.605 3.45Zm.46 23.345c-6.364 0-11.807-1.188-16.33-3.565-4.447-2.377-8.127-5.405-11.04-9.085-.614-.767-.92-1.572-.92-2.415s.383-1.533 1.15-2.07c.766-.613 1.648-.843 2.645-.69 1.073.153 1.878.652 2.415 1.495 2.376 2.837 5.405 5.175 9.085 7.015 3.68 1.917 8.011 2.875 12.995 2.875 4.753 0 8.97-1.15 12.65-3.45 3.756-2.3 6.708-5.482 8.855-9.545 2.146-3.987 3.22-8.472 3.22-13.455V193.86l3.105-4.255h3.795v22.54c0 6.21-1.38 11.807-4.14 16.79-2.76 4.983-6.517 8.893-11.27 11.73-4.754 2.913-10.159 4.37-16.215 4.37Zm-.46-29.785c4.906 0 9.238-1.073 12.995-3.22 3.833-2.223 6.823-5.252 8.97-9.085 2.146-3.91 3.22-8.357 3.22-13.34 0-5.06-1.074-9.507-3.22-13.34-2.147-3.91-5.137-6.938-8.97-9.085-3.757-2.223-8.089-3.335-12.995-3.335-4.907 0-9.277 1.112-13.11 3.335-3.834 2.147-6.824 5.175-8.97 9.085-2.147 3.833-3.22 8.28-3.22 13.34 0 4.983 1.073 9.43 3.22 13.34 2.146 3.833 5.136 6.862 8.97 9.085 3.833 2.147 8.203 3.22 13.11 3.22Zm78.051 6.44c-6.133 0-11.653-1.38-16.56-4.14-4.83-2.837-8.663-6.67-11.5-11.5-2.76-4.907-4.14-10.388-4.14-16.445 0-6.133 1.38-11.615 4.14-16.445 2.837-4.907 6.67-8.74 11.5-11.5 4.907-2.837 10.427-4.255 16.56-4.255 6.134 0 11.615 1.418 16.445 4.255 4.83 2.76 8.625 6.593 11.385 11.5 2.837 4.83 4.255 10.312 4.255 16.445l-2.875 4.6c0 5.213-1.303 9.89-3.91 14.03-2.53 4.14-5.98 7.437-10.35 9.89-4.37 2.377-9.353 3.565-14.95 3.565Zm0-6.44c4.83 0 9.124-1.112 12.88-3.335 3.834-2.3 6.824-5.367 8.97-9.2 2.224-3.91 3.335-8.28 3.335-13.11 0-4.907-1.111-9.277-3.335-13.11-2.146-3.91-5.136-6.977-8.97-9.2-3.756-2.3-8.05-3.45-12.88-3.45-4.753 0-9.046 1.15-12.88 3.45-3.833 2.223-6.861 5.29-9.085 9.2-2.223 3.833-3.335 8.203-3.335 13.11 0 4.83 1.112 9.2 3.335 13.11 2.224 3.833 5.252 6.9 9.085 9.2 3.834 2.223 8.127 3.335 12.88 3.335Zm28.635 5.75c-.996 0-1.84-.307-2.53-.92-.613-.69-.92-1.533-.92-2.53v-21.045l2.185-6.9h4.715v27.945c0 .997-.306 1.84-.92 2.53-.613.613-1.456.92-2.53.92Z" fill="#0EA5E9"/></svg>
